<?xml version="1.0" encoding="iso-8859-1"?>
<!-- Generator: Adobe Illustrator 18.1.1, SVG Export Plug-In . SVG Version: 6.00 Build 0)  -->
<svg version="1.1" id="Layer_1" xmlns="http://www.w3.org/2000/svg" xmlns:xlink="http://www.w3.org/1999/xlink" x="0px" y="0px"
	 viewBox="0 0 600 200" style="enable-background:new 0 0 600 200;" xml:space="preserve">
<g>
	<rect x="0" style="fill:none;" width="200" height="200"/>
	<rect x="200" style="fill:none;" width="200" height="200"/>
	<rect x="400" style="fill:none;" width="200" height="200"/>
	<g>
		<g>
			<path style="fill:#FFFFFF;" d="M573.784,99.794c0.171,0.248,0.568,0.105,0.471-0.569l-0.674-0.471L573.784,99.794z"/>
			<path style="fill:#FFFFFF;" d="M574.857,95.205c-0.381-0.784-1.013-1.649-1.58-1.091c0.693,0.733,0.443,0.938,1.264,1.743
				c0.105,0.677-0.179,1.194-0.423,1.089c0.176,0.234-0.119,1.052,0.306,1.408c0.473-0.89,0.522-2.032-0.01-3.171
				C574.54,94.922,574.731,95.154,574.857,95.205z"/>
			<path style="fill:#FFFFFF;" d="M544.126,37.942l0.309,0.316C544.364,38.155,544.256,38.048,544.126,37.942z"/>
			<path style="fill:#FFFFFF;" d="M505.173,23.689c0.321,0.009,0.459-0.047,0.48-0.106
				C505.352,23.604,505.105,23.626,505.173,23.689z"/>
			<path style="fill:#FFFFFF;" d="M497.969,22.828c0.156,0.012,0.287,0.023,0.429,0.034
				C498.233,22.805,498.068,22.775,497.969,22.828z"/>
			<path style="fill:#FFFFFF;" d="M544.126,37.942l-0.794-0.82C543.145,37.254,543.708,37.587,544.126,37.942z"/>
			<path style="fill:#FFFFFF;" d="M572.165,86.368c0.071,0.217,0.165,0.392,0.275,0.548c-0.061-0.178-0.116-0.352-0.166-0.531
				C572.236,86.381,572.204,86.378,572.165,86.368z"/>
			<path style="fill:#FFFFFF;" d="M558.139,50.024l0.225,0.258c0.123,0.027,0.255,0.04,0.392,0.042L558.139,50.024z"/>
			<path style="fill:#FFFFFF;" d="M566.468,61.608c-0.14-0.293-0.682-0.107-0.955-0.089c0.29,0.04,0.504,0.19,0.682,0.413
				C566.291,61.884,566.381,61.784,566.468,61.608z"/>
			<path style="fill:#FFFFFF;" d="M573.762,82.856l0.165,0.37C573.885,83.13,573.813,82.969,573.762,82.856z"/>
			<path style="fill:#FFFFFF;" d="M551.073,42.639c0.037-0.078,0.047-0.166,0.035-0.235
				C551.061,42.456,551.055,42.54,551.073,42.639z"/>
			<path style="fill:#FFFFFF;" d="M570.784,115.341c0.037,0.019,0.065,0.01,0.098,0.02
				C570.844,115.273,570.81,115.24,570.784,115.341z"/>
			<path style="fill:#FFFFFF;" d="M575.26,99.794l0.024,0.225c0.106,0.024,0.21,0.05,0.314,0.05L575.26,99.794z"/>
			<path style="fill:#FFFFFF;" d="M484.64,23c0.027,0,0.036,0,0.061,0C485.036,23,484.841,23,484.64,23z"/>
			<path style="fill:#FFFFFF;" d="M424.54,116.156c0.182-1.446,1.134,2.044,1.214-0.091
				C425.584,116.305,424.473,114.408,424.54,116.156z"/>
			<path style="fill:#FFFFFF;" d="M572.175,86.005c-0.039-0.181-0.076-0.365-0.104-0.552
				C572.098,85.709,572.13,85.878,572.175,86.005z"/>
			<path style="fill:#FFFFFF;" d="M425.754,116.064l0.004-0.001l0.004-0.218C425.759,115.936,425.757,115.987,425.754,116.064z"/>
			<path style="fill:#FFFFFF;" d="M456.547,35.819c0.107,0.045,0.249,0.037,0.394,0.022
				C456.899,35.799,456.802,35.782,456.547,35.819z"/>
			<path style="fill:#FFFFFF;" d="M477.343,26.634l-0.555,0.108C477.015,26.719,477.191,26.678,477.343,26.634z"/>
			<path style="fill:#FFFFFF;" d="M447.818,43.837c-0.25,0.179-0.379,0.195-0.629,0.537c0.048-0.006,0.089-0.018,0.139-0.038
				C447.384,44.177,447.505,44.012,447.818,43.837z"/>
			<path style="fill:#FFFFFF;" d="M439.571,52.887c0.074-0.025,0.152-0.072,0.229-0.108c0.068-0.101,0.147-0.219,0.216-0.323
				L439.571,52.887z"/>
			<path style="fill:#FFFFFF;" d="M555.524,146.73c0.288-0.09,0.525-0.098,0.739-0.082
				C555.84,146.526,556.848,145.146,555.524,146.73z"/>
			<path style="fill:#FFFFFF;" d="M572.474,86.305c-0.152-0.042-0.238-0.128-0.299-0.299c0.034,0.131,0.067,0.256,0.098,0.379
				C572.361,86.403,572.44,86.396,572.474,86.305z"/>
			<path style="fill:#FFFFFF;" d="M450.507,47.401l-1.387,1.207C449.53,48.293,450.033,47.853,450.507,47.401z"/>
			<path style="fill:#FFFFFF;" d="M480.017,169.669l0.426,0.051C480.29,169.663,480.141,169.638,480.017,169.669z"/>
			<path style="fill:#FFFFFF;" d="M445.48,52.665c-0.365,0.118-0.681,0.307-0.975,0.531c-0.016,0.086-0.046,0.175-0.029,0.255
				L445.48,52.665z"/>
			<path style="fill:#FFFFFF;" d="M556.27,146h-0.007H556.27z"/>
			<path style="fill:#FFFFFF;" d="M562.142,135.958c-0.88,1.5,0.213,1.082,0.39,1.624c-0.957,1.889-0.987,0.534-1.69,0.931
				c-0.268,0.6-0.396,1.205-0.528,1.764c-0.146,0.548-0.307,1.043-0.602,1.436c-0.142-0.01-0.288,0.119-0.284-0.151
				c-0.297,1.502-2.425,3.316-2.879,5.043c-0.13,0.05-0.217,0.056-0.281,0.043c0.457,0.038,0.774,0.246,0.944,0.459
				c-0.516,0.615-0.626,1.435-1.189,1.348c0.334-0.364,0.213-0.522,0.249-0.794l-0.392,0.773c-1.017,0.115,0.57-1.024,0.177-1.356
				c-0.446,0.687-0.873,1.486-1.313,2.219c-0.463,0.711-0.947,1.347-1.449,1.735c-0.669-0.284,1.851-2.272,0.261-1.48
				c0,0,0.379-0.305,0.757-0.61c0.364-0.321,0.727-0.642,0.727-0.642c-1.761,0.397,0.816-0.83-0.921-0.574
				c-0.876,0.894-1.338,1.417-1.745,1.995c-0.428,0.557-0.82,1.157-1.809,1.935c-0.146,0.661,0.526,0.271,0.376,0.934
				c-1.064,1.498-1.882,1.666-2.595,1.739c-0.708,0.086-1.294,0.103-1.991,1.306c-0.231,0.777,0.085,1.607-1.678,2.419l0.033-1.003
				c-1.953,1.445-0.445,1.735-2.831,2.821c0.199-0.513,1.42-1.322,1.065-1.182c-1.701,0.465-0.701,1.033-1.748,1.778l-0.599-0.415
				c-2.104,1.5-4.287,3.444-6.824,4.864c0.051-0.253,0.39-0.666-0.305-0.544c-1.518,1.012-3.31,1.773-5.103,2.454
				c-1.829,0.601-3.661,1.122-5.381,1.451l-1.08,0.986c-0.297,0.093-0.631-0.092-0.341-0.289c-1.37,0.157,0.041,0.375-0.522,0.775
				c-0.739,0.252-1.081-0.044-0.658-0.347c-2.125,1.229-6.441,2.686-9.055,2.478l0.46-0.26c-1.975,0.072-2.053,1.49-3.954,1.194
				l0.34-0.148c-4.295,0.232-9.1,0.782-12.333-0.288c-0.334,0.398-1.393,0.223-2.405,0.094c-1.015-0.106-1.974-0.29-2.185,0.293
				c-2.371-0.891-1.65-0.973-4.956-1.971c-0.89-0.198-1.484,0.446-2.63,0.315l0.111-0.607l-1.659,0.281c0,0-0.155-0.227-0.309-0.455
				c-0.151-0.234-0.301-0.469-0.301-0.469l-1.065-0.138c0.398,0.151,0.796,0.514,0.688,0.667c-0.842-0.094-1.798-0.477-2.528-0.873
				c-0.724-0.417-1.215-0.868-1.186-1.021c0,0-0.973-0.191-1.945-0.383c-0.971-0.206-1.931-0.464-1.931-0.464
				c0.172-0.199,0.816-0.036,1.354,0.006c-2.176-0.182-0.118-0.745-2.111-0.911c0.187,0.224-0.268,0.289-0.357,0.388
				c-0.382-0.335-1.06-0.746-1.837-1.131c-0.773-0.393-1.669-0.713-2.417-1.023l0.462-0.241c-2.535-1.399-5.529-2.641-8.241-4.476
				c0.877,0.797,0.259,1.276-0.6,0.809l0.035-0.751c-0.75-0.002,0.716,0.75-0.64,0.467c-0.976-0.768-0.258-1.085,0.431-0.856
				l-1.342-0.675c0.041-0.209,0.384-0.091,0.599-0.242c-0.73-0.033-1.706-1.982-2.794-1.988l0.053-0.205
				c-0.638-0.503-1.197-0.926-1.711-1.303c-0.502-0.393-0.952-0.746-1.388-1.087c-0.88-0.675-1.706-1.302-2.664-2.223
				c-0.425,0.372-1.093-0.437-1.994-0.667c-0.618-0.779-1.224-1.64-1.881-2.512c-0.647-0.883-1.293-1.823-2.092-2.694
				c-1.278-1.1-0.677-0.07-1.408-0.444c0.32-0.421-1.178-2.25-0.129-1.512c-0.926-1.076-1.457-1.809-2.091-2.586
				c-0.317-0.388-0.657-0.79-1.07-1.264c-0.394-0.489-0.851-1.056-1.42-1.762c0.034,0.442,0.197,0.865-0.074,0.766
				c-0.427-0.511-0.628-1.376-0.366-1.425l0.139,0.117c-1.387-1.527-2.24-3.762-2.92-5.902c-0.379-1.054-0.654-2.119-1.026-3.051
				c-0.184-0.467-0.385-0.905-0.612-1.305c-0.206-0.409-0.439-0.779-0.71-1.102l0.115,0.147c0,0-0.435-0.723-0.869-1.446
				c-0.453-0.72-0.832-1.474-0.832-1.474c-0.408-1.484,0.658,0.744,0.594-0.436c-0.488-0.777-0.841-1.508-1.116-2.204
				c-0.241-0.707-0.405-1.379-0.556-2.032c-0.329-1.301-0.492-2.55-1.103-3.931c0.228-0.637,0.244-1.445,0.172-2.358
				c-0.071-0.913-0.329-1.915-0.498-2.96c-0.176-1.043-0.388-2.111-0.494-3.117c-0.068-1.01-0.06-1.955,0.122-2.733l-0.342,0.199
				c-0.408-0.772,0.121-0.971,0.195-1.557c-0.274,0.094-0.298,0.877-0.504,0.392c-0.336-3.367-0.184-6.885,0.376-10.348
				c0.59-3.459,1.395-6.881,2.404-10.155c0.674-2.4-1.415-1.856,0.254-4.707l0.385,1.062c0.131-1.284,0.515-2.516,0.867-3.763
				c0.378-1.239,0.902-2.432,1.374-3.639c0.531-1.183,1.06-2.362,1.585-3.531c0.566-1.149,1.051-2.326,1.51-3.503
				c-0.014,0.333,0.147,0.43-0.074,0.864c0.913-0.699,1.947-3.362,1.621-3.592c0.459-0.633,0.4,0.032,0.828-0.265
				c0.813-0.725,0.9-2.578,1.635-2.764c0.121-0.033-0.047,0.327-0.121,0.509c0.201-0.695,1.901-2.574,1.07-2.363
				c0.635-0.699,1.153-1.43,1.636-2.133c0.492-0.694,0.925-1.382,1.556-1.83c0.179-1.138,2.309-2.245,1.904-3.035
				c0.583,0.714,2.769-1.899,3.379-2.991c-0.098,0.471,0.943-0.507,0.865,0.09c0.948-0.957,1.795-1.865,1.305-2.066
				c1.305-0.408,2.084-1.407,2.871-2.221c0.773-0.822,1.449-1.579,2.441-1.414c2.924-2.794,5.997-4.994,9.132-6.88
				c0.155,0.444-0.75,0.879-1.567,1.401c-0.825,0.507-1.616,1.001-1.308,1.369c0.694-0.506,1.3-0.991,1.867-1.458
				c0.586-0.44,1.135-0.853,1.683-1.264c1.098-0.834,2.29-1.507,3.899-2.114c0.858-0.253-0.304,0.567-0.511,0.83
				c1.474-0.914,3.061-1.442,4.557-2.048c1.54-0.493,2.995-1.077,4.412-1.701c0.016,0.083-0.277,0.261-0.557,0.412
				c0.573-0.193,1.386-0.256,1.209-0.631l-0.537,0.268c-1.11-0.301,1.987-1.862,2.03-2.19c-0.72,1.372,3.064-0.404,1.802,1.412
				c0.368-0.165,0.812-0.466,0.664-0.713c0.596-0.056,0.81,0.059,0.294,0.498c2.057-0.711,1.236-0.922,3.175-1.285
				c0.027,0.197-0.351,0.343-0.509,0.608c0.907-0.551,1.839-1.143,3.525-1.162c-0.084,0.131,0.128,0.261-0.365,0.321
				c1.413-0.21,2.592-0.638,3.837-0.91c1.24-0.304,2.536-0.562,4.126-0.387c-0.906,0.886,1.081,0.257,1.254,0.999
				c0,0,0.42-0.064,0.839-0.127c0.421-0.045,0.842-0.09,0.842-0.09l-0.674-0.38c1.476,0.064,2.814-0.489,4.08-0.155
				c0,0-0.279,0.056-0.559,0.112c-0.279,0.07-0.558,0.139-0.558,0.139s0.696-0.023,1.39,0.007c0.696,0.017,1.391,0.035,1.391,0.035
				l-1.553-0.402c1.531-0.269-0.102-0.955,1.878-0.596c-0.414,0.05,1.506,0.102,2.226,0.67l-0.005,0.001
				c0.76-0.143,1.556-0.294,2.631,0.029c0.249,0.272-0.352,0.788-0.19,0.968c0.811-0.495,3.454,0.409,4.488-0.032
				c-0.333,0.083-0.428,0.464-0.346,0.565l0.701-0.359c0.641,0.314,0.72,0.413,0.542,0.693c1.998,0.556-0.428-1.071,1.885-0.118
				c-0.199-0.004-0.128,0.091-0.539,0.075c2.343,0.803,4.714,0.952,6.791,1.95c0.385,0.924-1.939-0.462-1.415,0.385
				c3.129,0.845,6.654,1.545,9.452,3.082l-0.491-0.343c0.861-0.744,1.883,1.533,3.52,1.848c-0.378-0.131-0.731,0.267-0.58,0.211
				c0.899,0.61,1.885,1.106,3.033,1.616c1.117,0.56,2.406,1.126,3.863,1.922l-0.487-0.012c0.895,0.955,2.69,2.032,3.675,3.017
				c0.488,0.038,1.085,0.563,0.952-0.045c0.613,0.952,1.313,1.728,2.066,2.417c0.76,0.678,1.599,1.238,2.383,1.847
				c0.789,0.601,1.609,1.158,2.287,1.846c0.678,0.686,1.272,1.445,1.686,2.347c-0.315-0.325-0.917-0.616-0.67-0.356
				c0,0,0.616,0.523,1.176,1.1c0.574,0.567,1.147,1.133,1.147,1.133c0.184-0.493-0.064-0.501-0.239-1.253
				c0.474,0.129,1.24,0.688,1.77,1.301c-1.203-0.907-0.543,0.476-0.367,1.135c0.045-0.172,0.299-0.102,0.378-0.234
				c0.403,1.844,0.902-0.356,1.905,1.815l-0.269,0.05c0.648,0.595,1.339,1.087,1.838,1.886c-0.211,0.625-0.74-0.61-1.13-0.4
				c0.772,1.045,2.358,1.522,2.537,2.839c-0.425-0.39-0.856-1.067-1.313-1.429c0.235,1.402,0.403,1.461,0.848,2.311l-0.039-0.087
				c0,0,0.237,0.501,0.474,1.003c0.24,0.499,0.463,1.005,0.463,1.005s-0.034-0.143-0.069-0.285c-0.039-0.14-0.079-0.28-0.079-0.28
				c1.028,0.325,1.483,1.036,1.944,1.816c0.227,0.393,0.454,0.807,0.735,1.219c0.265,0.422,0.59,0.839,1.047,1.229
				c-1.748-1.518-0.604-0.084-1.218,0.048c0.107,0.577,0.324,1.416,0.062,1.277c0.923,0.697,0.424,1.696,1.663,2.725
				c-0.151,0.139,0.438,1.015-0.107,0.998c0.692,1.157,0.181-0.422,0.451-0.42c1.473,1.653,1.097,4.784,2.88,7.311
				c0.567,1.171,0.999,1.844,1.454,2.493c0.457,0.649,0.888,1.288,1.306,2.44c-0.12,0.869-0.841-0.486-0.841-0.486
				c0.002,1.35,0.318,2.28,0.754,3.456c-0.211-0.214-0.307,0.069-0.456,0.478c0.223,0.959,0.815,0.524,0.761,1.86
				c-0.255-0.186-0.648-0.411-0.946-0.838c0.19,0.553,0.426,1.097,0.661,1.65c0.207,0.557,0.415,1.123,0.578,1.711
				c-0.297,0.359-0.603-0.655-0.876-1.041c0.318,1.312,0.762,3.419,1.293,3.796l0.124-0.889c0.063,0.493-0.433,0.298-0.572-0.052
				c-0.566-1.102-0.026-1.68,0.16-1.773l0.233,0.841c0.512-0.505,0.356-1.372,0.054-2.316c-0.307-0.945-0.839-1.948-0.949-2.808
				l0.946,0.567l-0.993-1.635c0.136-0.413,0.547-0.77,0.829,0.059c0.158-1.321-0.529-1.026-0.316-2.182
				c0.043-0.133,0.094-0.089,0.151,0.012l-0.518-1.145c0.224,0.194,0.524-0.341,0.578,0.429c0-1.146-0.399-1.975-0.734-2.631
				c-0.33-0.659-0.592-1.151-0.405-1.644l0.1,0.164c-1.178-2.859-0.661-0.117-2.057-2.066l0.926-1.962l-0.671-0.079
				c-0.09-0.304-0.281-0.903-0.009-0.882c-0.824-0.95-0.175,0.281-0.794-0.214c-0.025-0.804-0.453-1.768-0.821-2.59
				c-0.384-0.817-0.658-1.519-0.287-1.879c-0.647-0.305,0.274,1.475-0.689,0.129c0.38-0.429,0.144-0.843-0.202-1.327
				c-0.364-0.477-0.855-1.013-0.957-1.743c0.675,0.134,1.028,1.449,0.817-0.018c-0.6-0.171-0.864-0.797-1.07-1.509
				c-0.21-0.708-0.408-1.482-0.774-1.956c-0.329,0.156-0.715-0.362-1.167-1.118c-0.462-0.75-1.049-1.709-1.679-2.479
				c0.303-0.045-1.748-3.318-2.694-4.934l0.13-0.031c-0.82,0.176-1.836-1.441-2.874-2.378c0.369-0.241,0.673-0.171,1.308,0.286
				c0,0-0.207-0.254-0.425-0.5c-0.216-0.248-0.431-0.495-0.431-0.495c-0.382-0.082-0.743-0.309-1.361-0.893l0.627-0.114
				c-0.574-0.661-1.289-1.202-2.028-1.797c-0.743-0.592-1.436-1.309-2.137-2.197c-0.442,0.287,0.268,2.225-1.653,0.867
				c0.13-0.258,0.395-0.661,0.918-0.318c-0.171-0.113-0.678-0.328-0.889-0.693l1.001,0.311c-0.593-0.848-0.653-0.085-1.208-0.673
				c0.282-0.277-0.242-0.62,0.056-0.769c0.177,0.116,0.402,0.609,0.734,0.711c-0.612-0.687-1.26-1.624-1.353-2.077
				c-0.089,0.22-0.355,0.396-0.896-0.005c-1.333-1.116-0.139-0.749-0.78-1.572c-0.485-0.08-1.185-0.987-1.58-0.544
				c-0.398-0.317-0.301-0.591-0.358-0.838c-0.441-0.172-1.268-0.828-1.967-1.252c-0.703-0.421-1.233-0.662-1.003-0.114l0.163,0.167
				c-0.04-0.019-0.086-0.041-0.135-0.064c0.006,0.004,0,0,0.006,0.004l-0.006-0.004c-0.685-0.307-1.323-0.696-1.937-1.133
				c-0.62-0.427-1.241-0.866-1.845-1.334c-1.196-0.953-2.45-1.833-3.776-2.453l0.1-0.171c-0.802-0.352-1.693-0.742-2.526-1.108
				c-0.836-0.357-1.615-0.686-2.277-0.734c-0.466-0.211-0.954-0.827-0.656-0.951c-1.287-0.401-1.479-0.311-3.155-1.304
				c1.38,0.174-0.317-0.454,1.378,0.273c-1.552-0.791-1.812-1.252-3.747-1.407c0.779-0.27-1.033-1.023-1.871-1.146l1.043,0.735
				c-0.906-0.229-1.661-0.532-2.433-0.837l0.625-0.492c-1.603-0.906-3.272-1.04-4.802-1.126c-1.544-0.056-2.92-0.221-4.145-1.096
				c-1.018,0.291,1.853,0.664,0.911,1.049c-1.583-0.372-3.117-1.623-3.636-1.707c-2.21-0.638-2.221,0.662-4.529,0.185
				c0.28,0.259,0.492,0.91-1.255,1.002c-1.604-0.21-1.938-1.145-0.89-1.257c0.395,0.01,0.579,0.099,0.557,0.178
				c0.535-0.046,1.241-0.094,0.61-0.4l-0.232,0.22c-0.398-0.152-1.165-0.264-1.763-0.382c-0.599-0.108-1.032-0.196-0.755-0.388
				c-1.262,0.194-0.547,0.375,0.368,0.522c-2.104-0.376-3.302-0.153-5.483-0.294c0.35,0.122,0.672,0.393,0.328,0.399
				c-3.194-0.191-1.39,0.436-3.522,0.694c-1.241-0.268,0.379-0.895-1.764-0.428c-1.346-0.143-0.341-0.606,0.177-0.839
				c-0.489,0.153-0.967,0.226-1.427,0.256c-0.458,0.05-0.901,0.051-1.32,0.032c-0.837-0.038-1.583-0.155-2.16-0.124l1.026-0.324
				c-0.614,0.197-1.131,0.247-1.653,0.33l0.669,0.384c-0.628-0.014-1.141,0.106-1.162-0.101c-0.576,0.419,0.602,0.695-0.562,1.334
				c-0.847-0.085-2.396,0.671-2.794,0.143c2.573-0.285-0.412-0.58,1.729-1.076c-0.404,0.15-0.914,0.234-1.542,0.268
				c-0.105-0.048,0.059-0.149,0.22-0.212c-2.555-0.009-0.971,0.949-3.468,1.506c0.231-0.423-0.748-0.518-1.132-0.316
				c1.004-0.277,0.623,0.439-0.212,0.958c-1.652,0.182-1.655,0.684-2.485,0.886l0.976-0.142c-0.218,0.425-1.013,0.6-2.045,1.084
				c-0.179-0.231,0.916-0.51,0.495-0.497c-0.984,1.009-2.928,0.259-4.419,1.337c-0.849,0.076-0.317-0.592-1.05-0.478
				c-1.683,1.14-2.185,0.396-3.956,1.596c0.754,0.182,0.793,0.037-0.343,1.061l2.984-1.717l-1.718,1.538
				c0.94-0.407,1.848-1.188,2.46-1.328c-0.816,0.749-0.749,0.622-0.153,0.777c-1.558-0.065-2.366,1.49-4.01,1.777l-0.478-1.082
				c-1.212,0.334-2.14,0.947-3.088,1.682c-0.935,0.764-1.958,1.532-3.379,2.263c0,0,0.243-0.094,0.485-0.189
				c0.24-0.098,0.49-0.178,0.49-0.178c-0.127,0.611-1.621,1.109-2.388,1.82c-0.136-0.381-0.759-0.155-1.267-0.116
				c0.21,0.21-1.93,1.338-1.701,2.144c0,0-0.366,0.101-0.732,0.202c-0.371,0.096-0.725,0.22-0.725,0.22
				c-2.162,1.436-1.632,2.665-3.548,4.175c0.279-0.809-0.754-0.285,0.301-1.604c-0.628,0.539-1.239,0.973-1.068,1.187
				c-0.262,0.068-0.615,0.535-0.983,1.03c-0.36,0.505-0.753,1.018-1.156,1.144c-0.132,0.366,0.073,0.741-0.614,1.351
				c-0.129,0.012-0.134-0.141-0.134-0.141c0.121,0.13-0.827,1.206,0.041,0.94c-2.653,0.946-4.72,5.176-6.821,6.292
				c-1.037,1.472-2.14,3.337-3.049,4.682c-0.042-0.153-0.161-0.114,0.04-0.35c-1.517,1.696,0.196,1.771-1.494,3.695
				c-1.209,0.789,0.399-1.337-0.221-0.766c-1.298-0.365-1.426,2.739-2.881,3.899l0.124-0.409c-0.988,0.983-1.074,3.079-2.002,5.008
				c0,0-0.062-0.143-0.174-0.092c-0.003,0.807-0.248,1.856-0.495,2.976c-0.256,1.116-0.641,2.255-0.857,3.264
				c-0.275-0.773,0.046-0.975-0.566-0.779c-0.227,0.9,0.866,0.028,0.417,1.806c-0.448,0.474-1.123,1.65-1.678,1.667
				c0,0,0.109-0.423,0.249-0.837c0.133-0.416,0.266-0.833,0.266-0.833c-0.987,0.624-0.675,2.165-1.032,3.015l-0.267-0.199
				c-0.658,2.618,0.155,2.855-0.554,5.626l0.298-0.239c0.429,1.674-0.677,1.201-0.395,2.837l-0.861,0.332
				c-0.009,0.525,0.033,1.451,0.106,2.475c0.069,1.024,0.07,2.134,0.083,3.059c-0.504-1.093-0.499-3.285-0.667-4.681
				c-0.152,1.022-0.391,3.494-0.072,4.062c-0.025-0.418-0.151-0.959,0.021-1.351c0.422,1.324,0.643,2.985,0.467,5.003
				c-1.546-0.436-0.561,5.285-1.625,6.802c0.149,0.91,0.256,1.813,0.343,2.726c0.081,0.913,0.086,1.839,0.127,2.784
				c0.116,1.884,0.161,3.871,0.622,5.961c0.906-1.7,0.252,1.219,1.406,0.726c0.249,0.948,0.347,1.308,0.279,1.412
				c0,0-0.011,0.765-0.022,1.531c-0.005,0.386-0.009,0.771-0.013,1.06c-0.007,0.291,0.001,0.482,0.001,0.482
				c-0.166,0.779-0.496-0.845-0.726-0.695c0.437,2.14-0.271,1.014-0.203,2.504c0.34-0.403,0.81,0.562,0.992,1.81l0.061-1.846
				c0.721,1.372,0.659,2.069,0.639,2.773c-0.034,0.704-0.062,1.427,0.736,2.777l-0.676-0.795c0.692,1.431,2.107,5.483,3.676,6.455
				c-0.014,0.311-0.164,0.791-0.531,0.195c1.465,3.519,4.731,6.95,5.86,9.661l-0.404-0.077c0.46,0.541,1.108,0.728,1.378,1.604
				c-0.128,0.033-0.41-0.062-0.236,0.214c0.302,0.248,1.507,1.216,1.903,2.073l-0.732-0.448c0.903,1.618,1.996,2.57,3.018,3.45
				c1.083,0.834,2.159,1.552,3.249,2.615c-0.647,0.57,1.099,2.905,2.062,3.998l-0.124,0.054c3.003,3.105,5.911,4.352,9.247,6.419
				c0.356,0.547,0.945,1.143,1.674,1.772c0.733,0.622,1.644,1.219,2.582,1.858c1.903,1.238,4.036,2.454,5.693,3.571
				c-0.466-0.419,0.401-0.565,1.061-0.327c0.735,0.609,2.564,0.527,2.088,1.209l-0.294-0.15c0.307,0.996,2.128,1.64,3.522,2.174
				l0.619-0.891c1.503,1.451,3.989,2.155,6.254,2.662c1.142,0.232,2.219,0.477,3.133,0.718c0.917,0.233,1.655,0.534,2.099,0.989
				c0.968-0.026,2.112,0.175,3.072,0.076l-0.15,0.549c1.27,0.304,2.225,0.534,3.274,0.667c1.047,0.129,2.168,0.332,3.785,0.357
				l-0.694,0.353c1.829,0.166,2.417-1.428,4.059-1.387l0.465,0.857c1.577,0.034,3.162,0.278,4.753,0.293
				c0.795,0.02,1.59,0.033,2.377-0.044c0.786-0.098,1.566-0.254,2.327-0.505c-0.041,0.127-0.113,0.378-0.623,0.451
				c1.488-0.018,5.824-0.068,5.119-1.139c0.15,0.785,3.238-0.451,4.821-1.105l-0.145,0.605c1.255-1.02,1.25-1.219,3.138-1.857
				c0.475-0.04,0.513,0.338-0.133,0.342c1.6-0.105,1.044-0.832,2.953-1.055l-0.584,0.536c1.568-0.41,1.401-0.53,2.114-1.215
				c0.886-0.539,2.934-0.837,3.336-0.456c0.099-0.369,0.773-1.076,1.707-1.288c0.19,0.13-0.088,0.367-0.23,0.484
				c1.334-0.309,2.206-0.844,2.96-1.359c0.76-0.504,1.433-0.922,2.389-1.079c0.115,0.148,0.264,0.177,0.426,0.156
				c-1.947,0.924-3.557,1.576-3.42,1.483c0.199,0.474,1.842-0.169,0.85,1.057c0.57-0.47,1.317-1.145,2.12-1.759
				c0.792-0.641,1.627-1.252,2.442-1.529c0.097,0.006,0.191,0.013,0.283,0.054l-0.13,0.132c0.374-0.136,0.668-0.335,0.919-0.568
				c0.513-0.197,0.844-0.315,1.302-0.57c0.379,0.258,1.879-0.782,2.617-1.252c-0.355-0.441,0.649-0.977-0.493-0.796
				c0.136-0.042-0.1,0.15-0.579,0.472c-0.104,0.079-0.233,0.163-0.291,0.234c0.007-0.021,0.016-0.046,0.026-0.072
				c-0.489,0.293-1.127,0.674-1.852,1.108c0.456-0.591,0.948-1.151,1.938-1.361c0.198-0.532,0.403-1.122,0.542-1.412
				c1.405,0.044,3.566-0.857,4.088-0.674c1-0.9,2.254-1.842,3.282-2.87c0.522-0.503,1.006-1.001,1.392-1.494
				c0.371-0.511,0.652-1.007,0.792-1.478c0.475-0.591,0.849-0.334,1.171-0.394c-0.257,0.364-0.659,0.69-0.738,0.959
				c0.991-1.155,3.231-3.083,2.97-3.859c1.589-1.072-0.273,1.238,1.483-0.681l-0.082,0.413c1.093-0.722,1.931-1.546,2.618-2.426
				c0.658-0.908,1.184-1.858,1.721-2.807c1.031-1.945,2.057-3.88,4.285-5.774c-0.304,0.267-0.452,0.402-0.6,0.397
				c1.092-1.2,1.957-2.596,2.848-3.981c0.795-1.444,1.627-2.88,2.299-4.395c1.476-2.968,2.652-6.022,4.298-8.811
				c0.784-1.649,0.403-1.993,0.413-3.142l0.701-0.189c0,0-0.025-0.504-0.066-1.008c-0.039-0.501-0.077-1.003-0.077-1.003
				c0.059-0.675,0.255-1.261,0.519-1.822c0.248-0.565,0.539-1.11,0.835-1.681c0.293-0.572,0.578-1.173,0.779-1.852
				c0.179-0.682,0.249-1.447,0.163-2.323l-0.478,0.358c0.138-0.591,0.268-1.542,0.366-2.318c0.088-0.777,0.202-1.336,0.421-1.206
				c-0.058-0.134-0.37-0.855-0.099-0.855h0.318c0,0-0.044-0.791-0.088-1.546c-0.078-0.753-0.157-1.524-0.157-1.524
				c0.386-2.286,1.262,0.455,1.503-2.946c-0.089-1.283-0.829-3.618-1.052-3.141c-0.028,0.505-0.23,1.285-0.547,1.316l-0.136-1.138
				c-0.926-0.218-1.859-1.04-2.577,1.641l0.522,1.903l-0.497,0.58c0,0,0.033-0.394,0.037-0.789c0.003-0.395,0.005-0.791,0.005-0.791
				c-0.434,0.878-0.108,1.456,0.098,2.111c-0.251,0.135-0.439,0.385-0.556,0.748l0.744,1.92c-0.388,0.183-0.63-0.892-0.971,0.311
				c0.301,0.903,0.917-0.739,1.005,0.719c-0.534,0.85-0.843,0.538-0.617,1.637c-0.256,0.114-0.379-0.13-0.431-0.557
				c0.193,0.973-0.235,2.469,0.157,3.031c-0.34,0.418-0.446,1.204-0.573,1.858c-0.145,0.649-0.332,1.158-0.748,1.018
				c0.141,0.328,0.303,1.763,0.143,2.62c-0.61-1.784-0.924,3.102-1.911,2.379c0.316,0.695,0.08,1.724-0.248,2.84
				c-0.164,0.559-0.336,1.144-0.503,1.714c-0.181,0.565-0.331,1.125-0.399,1.655c-0.027-0.135-0.087-0.402,0.026-0.553
				c-0.5,1.052-0.888,1.258-1.324,1.877c0.663,0.438,0.078,2.163,0.109,3.269c-1.272,0.981-0.475-1.185-1.319-1.079
				c0.301,0.1,0.199,0.731,0.086,1.305c-0.127,0.566-0.245,1.086,0.102,0.988c-0.916,0.762-0.633,0.737-1.464,0.935
				c0.775,0.624-0.294,0.985-0.233,2.051c-1.208,1.132-1-0.104-1.602,1.542C561.682,137.457,562.142,135.958,562.142,135.958z
				 M533.86,165.085c-0.002-0.005-0.005-0.01-0.005-0.01c0.313-0.175,0.579-0.324,0.749-0.419
				C534.449,164.746,534.234,164.869,533.86,165.085z M530.723,166.626c0.396-0.158,0.885-0.364,1.388-0.61
				c0.192,0.114,0.168,0.369-0.161,0.501C532.069,166.321,531.267,166.56,530.723,166.626z M539.25,166.572
				c-0.465,0.359-0.69,0.361-0.816,0.301c0.233-0.145,0.502-0.322,0.847-0.565c0.004-0.026,0.022-0.065,0.024-0.093
				C539.312,166.334,539.308,166.452,539.25,166.572z"/>
			<path style="fill:#FFFFFF;" d="M539.775,165.418c0.066-0.052,0.094-0.095,0.182-0.159c-0.124,0.024-0.241,0.046-0.36,0.069
				c-0.03,0.087-0.06,0.175-0.086,0.253C539.6,165.526,539.692,165.469,539.775,165.418z"/>
			<path style="fill:#FFFFFF;" d="M544.49,38.313l-0.055-0.055c0.038,0.055,0.073,0.106,0.083,0.157
				C544.493,38.364,544.503,38.35,544.49,38.313z"/>
			<polygon style="fill:#FFFFFF;" points="483.806,170.361 483.779,170.501 484.1,170.448 			"/>
			<path style="fill:#FFFFFF;" d="M557.405,53.114c-0.016,0.06-0.01,0.15,0.045,0.29C557.472,53.373,557.444,53.254,557.405,53.114z
				"/>
			<path style="fill:#FFFFFF;" d="M562.198,59.952l0.467,1.099C562.487,60.562,562.332,60.22,562.198,59.952z"/>
			<path style="fill:#FFFFFF;" d="M565.187,65.62c0.124,0.026,0.2,0.012,0.27,0c-0.001-0.005-0.002-0.013-0.002-0.013L565.187,65.62
				z"/>
			<path style="fill:#FFFFFF;" d="M478.88,30.107c-0.081,0.026-0.16,0.056-0.228,0.091C478.136,30.467,478.494,30.309,478.88,30.107
				z"/>
			<path style="fill:#FFFFFF;" d="M508.682,26.148c-0.333,0.06-0.66,0.12-1,0.14C508.215,26.4,508.63,26.464,508.682,26.148z"/>
			<path style="fill:#FFFFFF;" d="M450.659,47.269c0,0-0.003-0.004-0.004-0.01c-0.051,0.049-0.097,0.092-0.148,0.141L450.659,47.269
				z"/>
			<path style="fill:#FFFFFF;" d="M506.273,26.171c0.531,0.153,0.982,0.162,1.409,0.117
				C507.244,26.216,506.726,26.12,506.273,26.171z"/>
			<path style="fill:#FFFFFF;" d="M572.944,91.996l0.016,0.307c0.037-0.009,0.068,0.006,0.093,0.027L572.944,91.996z"/>
			<path style="fill:#FFFFFF;" d="M573.053,92.33l0.092,0.334C573.133,92.507,573.118,92.372,573.053,92.33z"/>
			<path style="fill:#FFFFFF;" d="M573.34,93.368l-0.195-0.705C573.162,92.912,573.168,93.219,573.34,93.368z"/>
			<path style="fill:#FFFFFF;" d="M571.815,83.625l-0.221-0.049C571.647,83.617,571.719,83.636,571.815,83.625z"/>
			<path style="fill:#FFFFFF;" d="M571.165,81.137c0.124,0.603-0.069,1.598,0.253,2.396l0.176,0.042
				C571.203,83.258,571.66,81.616,571.165,81.137z"/>
			<path style="fill:#FFFFFF;" d="M570.015,70.009c0,0,0.181,0.528,0.344,1.062c0.166,0.532,0.333,1.065,0.333,1.065
				c0.06-0.44,0.141-1.029,0.563-0.1C570.816,69.169,571.028,72.751,570.015,70.009z"/>
			<path style="fill:#FFFFFF;" d="M567.296,63.639c0.638,1.023,0.272-0.161,0.408-0.164
				C567.167,62.894,567.03,62.762,567.296,63.639z"/>
			<path style="fill:#FFFFFF;" d="M531.224,30.144l0.32-0.417C530.664,29.41,531.455,29.905,531.224,30.144z"/>
			<path style="fill:#FFFFFF;" d="M521.491,29.316c0,0,0.186,0.135,0.372,0.271c0.185,0.135,0.365,0.286,0.365,0.286l0.534-0.314
				c0,0-0.316-0.067-0.632-0.134C521.81,29.37,521.491,29.316,521.491,29.316z"/>
			<polygon style="fill:#FFFFFF;" points="516.999,24.381 517.415,24.403 515.85,24.232 			"/>
			<path style="fill:#FFFFFF;" d="M440.535,50.857l0.665,0.184C441.526,50.497,441.065,49.933,440.535,50.857z"/>
			<path style="fill:#FFFFFF;" d="M425.352,83.761c-0.414,0.316-0.792,1.296-0.597,1.977
				C424.939,84.935,425.324,84.18,425.352,83.761z"/>
			<path style="fill:#FFFFFF;" d="M473.29,172.507l-0.766-0.075c0,0,0.342,0.087,0.683,0.175c0.339,0.093,0.69,0.153,0.69,0.153
				L473.29,172.507z"/>
		</g>
		<g>
			<path style="fill:#F1C40F;" d="M453.938,105.677h-8.089l-1.25-23.188h10.589L453.938,105.677z M444.697,114.244
				c0-1.479,0.444-2.631,1.335-3.456s2.165-1.237,3.824-1.237c1.658,0,2.921,0.408,3.787,1.226c0.865,0.816,1.299,1.969,1.299,3.455
				c0,1.487-0.445,2.644-1.336,3.469s-2.141,1.237-3.75,1.237s-2.872-0.412-3.787-1.237S444.697,115.723,444.697,114.244z"/>
			<path style="fill:#F1C40F;" d="M475.85,118.325h-13.923l-2.671-31.741h9.24l1.226,14.755c0.196,0,0.425-0.057,0.687-0.171
				c0.261-0.114,0.485-0.278,0.674-0.49c0.188-0.213,0.375-0.552,0.563-1.018c0.188-0.466,0.307-1.017,0.355-1.654l0.98-11.422
				h9.167l-0.956,11.299c-0.098,1.324-0.327,2.521-0.687,3.591c-0.359,1.071-0.78,1.953-1.262,2.647
				c-0.482,0.695-1.051,1.304-1.704,1.826c-0.653,0.523-1.274,0.915-1.862,1.177c-0.589,0.262-1.226,0.474-1.912,0.637
				c-0.98,0.229-2.01,0.344-3.088,0.344h-0.393l0.294,2.892h6.373c2.042,0,3.738-0.805,5.086-2.414s2.177-4.187,2.488-7.733
				l1.225-14.265h9.241l-1.299,14.485c-0.245,2.795-0.761,5.229-1.545,7.305s-1.712,3.737-2.781,4.987
				c-1.071,1.251-2.365,2.256-3.886,3.016c-1.52,0.76-3.035,1.274-4.546,1.544C479.424,118.19,477.728,118.325,475.85,118.325z"/>
			<path style="fill:#F1C40F;" d="M523.915,86.583v6.716c-1.602,0.621-2.692,1.328-3.272,2.12c-0.58,0.793-0.87,2.063-0.87,3.812
				v19.094h-9.51V99.059c0-2.141,0.76-3.856,2.279-5.147H497.32v-7.328H523.915z"/>
			<path style="fill:#F1C40F;" d="M527.886,118.325v-31.3c3.889-0.621,8.276-0.932,13.163-0.932c3.904,0,6.797,0.482,8.677,1.446
				c0.979,0.49,1.784,1.054,2.414,1.691c0.629,0.637,1.11,1.438,1.446,2.401c0.334,0.965,0.563,1.949,0.686,2.954
				c0.123,1.005,0.185,2.202,0.185,3.591v20.147h-9.535V98.177c0-3.153-1.602-4.73-4.804-4.73c-0.85,0-1.757,0.024-2.721,0.073
				v24.805H527.886z"/>
		</g>
		<g>
			<line style="fill:none;stroke:#F1C40F;stroke-width:3;stroke-miterlimit:10;" x1="442" y1="74.5" x2="558" y2="74.5"/>
			<line style="fill:none;stroke:#F1C40F;stroke-width:3;stroke-miterlimit:10;" x1="442" y1="125.5" x2="558" y2="125.5"/>
		</g>
	</g>
	<g>
		<g>
			<path style="fill:#FFFFFF;" d="M373.784,99.794c0.171,0.248,0.568,0.105,0.471-0.569l-0.674-0.471L373.784,99.794z"/>
			<path style="fill:#FFFFFF;" d="M374.857,95.205c-0.381-0.784-1.013-1.649-1.58-1.091c0.693,0.733,0.443,0.938,1.264,1.743
				c0.105,0.677-0.18,1.194-0.424,1.089c0.176,0.234-0.119,1.052,0.306,1.408c0.472-0.89,0.522-2.032-0.01-3.171
				C374.54,94.922,374.731,95.154,374.857,95.205z"/>
			<path style="fill:#FFFFFF;" d="M344.126,37.942l0.309,0.316C344.364,38.155,344.256,38.048,344.126,37.942z"/>
			<path style="fill:#FFFFFF;" d="M305.173,23.689c0.321,0.009,0.459-0.047,0.479-0.106
				C305.352,23.604,305.105,23.626,305.173,23.689z"/>
			<path style="fill:#FFFFFF;" d="M297.968,22.828c0.156,0.012,0.287,0.023,0.429,0.034
				C298.233,22.805,298.068,22.775,297.968,22.828z"/>
			<path style="fill:#FFFFFF;" d="M344.126,37.942l-0.794-0.82C343.145,37.254,343.708,37.587,344.126,37.942z"/>
			<path style="fill:#FFFFFF;" d="M372.165,86.368c0.071,0.217,0.165,0.392,0.275,0.548c-0.061-0.178-0.116-0.352-0.166-0.531
				C372.236,86.381,372.204,86.378,372.165,86.368z"/>
			<path style="fill:#FFFFFF;" d="M358.139,50.024l0.225,0.258c0.123,0.027,0.255,0.04,0.392,0.042L358.139,50.024z"/>
			<path style="fill:#FFFFFF;" d="M366.468,61.608c-0.14-0.293-0.682-0.107-0.955-0.089c0.29,0.04,0.504,0.19,0.682,0.413
				C366.291,61.884,366.381,61.784,366.468,61.608z"/>
			<path style="fill:#FFFFFF;" d="M373.762,82.856l0.165,0.37C373.885,83.13,373.813,82.969,373.762,82.856z"/>
			<path style="fill:#FFFFFF;" d="M351.073,42.639c0.037-0.078,0.047-0.166,0.035-0.235
				C351.061,42.456,351.055,42.54,351.073,42.639z"/>
			<path style="fill:#FFFFFF;" d="M370.784,115.341c0.037,0.019,0.065,0.01,0.098,0.02
				C370.844,115.273,370.81,115.24,370.784,115.341z"/>
			<path style="fill:#FFFFFF;" d="M375.26,99.794l0.025,0.225c0.106,0.024,0.21,0.05,0.314,0.05L375.26,99.794z"/>
			<path style="fill:#FFFFFF;" d="M284.64,23c0.027,0,0.036,0,0.061,0C285.036,23,284.841,23,284.64,23z"/>
			<path style="fill:#FFFFFF;" d="M224.54,116.156c0.182-1.446,1.134,2.044,1.214-0.091
				C225.584,116.305,224.473,114.408,224.54,116.156z"/>
			<path style="fill:#FFFFFF;" d="M372.175,86.005c-0.039-0.181-0.076-0.365-0.104-0.552
				C372.098,85.709,372.13,85.878,372.175,86.005z"/>
			<path style="fill:#FFFFFF;" d="M225.754,116.064l0.004-0.001l0.004-0.218C225.759,115.936,225.757,115.987,225.754,116.064z"/>
			<path style="fill:#FFFFFF;" d="M256.547,35.819c0.107,0.045,0.249,0.037,0.394,0.022
				C256.899,35.799,256.802,35.782,256.547,35.819z"/>
			<path style="fill:#FFFFFF;" d="M277.343,26.634l-0.555,0.108C277.015,26.719,277.191,26.678,277.343,26.634z"/>
			<path style="fill:#FFFFFF;" d="M247.818,43.837c-0.25,0.179-0.379,0.195-0.629,0.537c0.048-0.006,0.089-0.018,0.139-0.038
				C247.384,44.177,247.505,44.012,247.818,43.837z"/>
			<path style="fill:#FFFFFF;" d="M239.571,52.887c0.074-0.025,0.152-0.072,0.229-0.108c0.068-0.101,0.147-0.219,0.216-0.323
				L239.571,52.887z"/>
			<path style="fill:#FFFFFF;" d="M355.524,146.73c0.287-0.09,0.525-0.098,0.739-0.082
				C355.84,146.526,356.848,145.146,355.524,146.73z"/>
			<path style="fill:#FFFFFF;" d="M372.474,86.305c-0.152-0.042-0.238-0.128-0.299-0.299c0.034,0.131,0.066,0.256,0.098,0.379
				C372.361,86.403,372.44,86.396,372.474,86.305z"/>
			<path style="fill:#FFFFFF;" d="M250.507,47.401l-1.387,1.207C249.53,48.293,250.033,47.853,250.507,47.401z"/>
			<path style="fill:#FFFFFF;" d="M280.017,169.669l0.426,0.051C280.29,169.663,280.141,169.638,280.017,169.669z"/>
			<path style="fill:#FFFFFF;" d="M245.48,52.665c-0.365,0.118-0.681,0.307-0.975,0.531c-0.016,0.086-0.046,0.175-0.029,0.255
				L245.48,52.665z"/>
			<path style="fill:#FFFFFF;" d="M356.27,146h-0.007H356.27z"/>
			<path style="fill:#FFFFFF;" d="M362.142,135.958c-0.88,1.5,0.213,1.082,0.39,1.624c-0.957,1.889-0.987,0.534-1.69,0.931
				c-0.268,0.6-0.396,1.205-0.528,1.764c-0.146,0.548-0.307,1.043-0.602,1.436c-0.142-0.01-0.288,0.119-0.284-0.151
				c-0.296,1.502-2.425,3.316-2.879,5.043c-0.13,0.05-0.217,0.056-0.28,0.043c0.457,0.038,0.774,0.246,0.944,0.459
				c-0.516,0.615-0.626,1.435-1.189,1.348c0.334-0.364,0.213-0.522,0.249-0.794l-0.392,0.773c-1.017,0.115,0.57-1.024,0.177-1.356
				c-0.446,0.687-0.873,1.486-1.313,2.219c-0.463,0.711-0.947,1.347-1.449,1.735c-0.669-0.284,1.851-2.272,0.261-1.48
				c0,0,0.379-0.305,0.757-0.61c0.364-0.321,0.727-0.642,0.727-0.642c-1.761,0.397,0.816-0.83-0.921-0.574
				c-0.876,0.894-1.338,1.417-1.745,1.995c-0.428,0.557-0.82,1.157-1.808,1.935c-0.146,0.661,0.525,0.271,0.376,0.934
				c-1.064,1.498-1.882,1.666-2.595,1.739c-0.708,0.086-1.294,0.103-1.991,1.306c-0.231,0.777,0.085,1.607-1.678,2.419l0.033-1.003
				c-1.953,1.445-0.445,1.735-2.831,2.821c0.2-0.513,1.42-1.322,1.065-1.182c-1.701,0.465-0.701,1.033-1.748,1.778l-0.599-0.415
				c-2.104,1.5-4.287,3.444-6.824,4.864c0.051-0.253,0.39-0.666-0.305-0.544c-1.518,1.012-3.31,1.773-5.103,2.454
				c-1.829,0.601-3.661,1.122-5.381,1.451l-1.08,0.986c-0.297,0.093-0.631-0.092-0.341-0.289c-1.37,0.157,0.041,0.375-0.522,0.775
				c-0.739,0.252-1.081-0.044-0.658-0.347c-2.125,1.229-6.441,2.686-9.055,2.478l0.46-0.26c-1.975,0.072-2.053,1.49-3.954,1.194
				l0.34-0.148c-4.295,0.232-9.1,0.782-12.333-0.288c-0.334,0.398-1.393,0.223-2.405,0.094c-1.015-0.106-1.974-0.29-2.185,0.293
				c-2.371-0.891-1.65-0.973-4.956-1.971c-0.89-0.198-1.484,0.446-2.63,0.315l0.111-0.607l-1.659,0.281c0,0-0.155-0.227-0.309-0.455
				c-0.151-0.234-0.301-0.469-0.301-0.469l-1.065-0.138c0.398,0.151,0.796,0.514,0.688,0.667c-0.842-0.094-1.798-0.477-2.528-0.873
				c-0.724-0.417-1.215-0.868-1.186-1.021c0,0-0.973-0.191-1.945-0.383c-0.971-0.206-1.931-0.464-1.931-0.464
				c0.172-0.199,0.816-0.036,1.354,0.006c-2.176-0.182-0.118-0.745-2.111-0.911c0.187,0.224-0.268,0.289-0.357,0.388
				c-0.382-0.335-1.06-0.746-1.837-1.131c-0.773-0.393-1.669-0.713-2.417-1.023l0.462-0.241c-2.535-1.399-5.529-2.641-8.241-4.476
				c0.877,0.797,0.259,1.276-0.6,0.809l0.035-0.751c-0.75-0.002,0.716,0.75-0.64,0.467c-0.976-0.768-0.258-1.085,0.431-0.856
				l-1.342-0.675c0.041-0.209,0.384-0.091,0.599-0.242c-0.73-0.033-1.706-1.982-2.794-1.988l0.053-0.205
				c-0.638-0.503-1.197-0.926-1.711-1.303c-0.502-0.393-0.952-0.746-1.388-1.087c-0.88-0.675-1.706-1.302-2.664-2.223
				c-0.425,0.372-1.093-0.437-1.994-0.667c-0.618-0.779-1.224-1.64-1.881-2.512c-0.647-0.883-1.293-1.823-2.092-2.694
				c-1.278-1.1-0.677-0.07-1.408-0.444c0.32-0.421-1.178-2.25-0.129-1.512c-0.926-1.076-1.457-1.809-2.091-2.586
				c-0.317-0.388-0.657-0.79-1.07-1.264c-0.394-0.489-0.851-1.056-1.42-1.762c0.034,0.442,0.197,0.865-0.074,0.766
				c-0.427-0.511-0.628-1.376-0.366-1.425l0.139,0.117c-1.387-1.527-2.24-3.762-2.92-5.902c-0.379-1.054-0.654-2.119-1.026-3.051
				c-0.184-0.467-0.385-0.905-0.612-1.305c-0.206-0.409-0.439-0.779-0.71-1.102l0.115,0.147c0,0-0.435-0.723-0.869-1.446
				c-0.453-0.72-0.832-1.474-0.832-1.474c-0.408-1.484,0.658,0.744,0.594-0.436c-0.488-0.777-0.841-1.508-1.116-2.204
				c-0.241-0.707-0.405-1.379-0.556-2.032c-0.329-1.301-0.492-2.55-1.103-3.931c0.228-0.637,0.244-1.445,0.172-2.358
				c-0.071-0.913-0.329-1.915-0.498-2.96c-0.176-1.043-0.388-2.111-0.494-3.117c-0.068-1.01-0.06-1.955,0.122-2.733l-0.342,0.199
				c-0.408-0.772,0.121-0.971,0.195-1.557c-0.274,0.094-0.298,0.877-0.504,0.392c-0.336-3.367-0.184-6.885,0.376-10.348
				c0.59-3.459,1.395-6.881,2.404-10.155c0.674-2.4-1.415-1.856,0.254-4.707l0.385,1.062c0.131-1.284,0.515-2.516,0.867-3.763
				c0.378-1.239,0.902-2.432,1.374-3.639c0.531-1.183,1.06-2.362,1.585-3.531c0.566-1.149,1.051-2.326,1.51-3.503
				c-0.014,0.333,0.147,0.43-0.074,0.864c0.913-0.699,1.947-3.362,1.621-3.592c0.459-0.633,0.4,0.032,0.828-0.265
				c0.813-0.725,0.9-2.578,1.635-2.764c0.121-0.033-0.047,0.327-0.121,0.509c0.201-0.695,1.901-2.574,1.07-2.363
				c0.635-0.699,1.153-1.43,1.636-2.133c0.492-0.694,0.925-1.382,1.556-1.83c0.179-1.138,2.309-2.245,1.904-3.035
				c0.583,0.714,2.769-1.899,3.379-2.991c-0.098,0.471,0.943-0.507,0.865,0.09c0.948-0.957,1.795-1.865,1.305-2.066
				c1.305-0.408,2.084-1.407,2.871-2.221c0.773-0.822,1.449-1.579,2.441-1.414c2.924-2.794,5.997-4.994,9.132-6.88
				c0.155,0.444-0.75,0.879-1.567,1.401c-0.825,0.507-1.616,1.001-1.308,1.369c0.694-0.506,1.3-0.991,1.867-1.458
				c0.586-0.44,1.135-0.853,1.683-1.264c1.098-0.834,2.29-1.507,3.899-2.114c0.858-0.253-0.304,0.567-0.511,0.83
				c1.474-0.914,3.061-1.442,4.557-2.048c1.54-0.493,2.995-1.077,4.412-1.701c0.016,0.083-0.277,0.261-0.557,0.412
				c0.573-0.193,1.386-0.256,1.209-0.631l-0.537,0.268c-1.11-0.301,1.987-1.862,2.03-2.19c-0.72,1.372,3.064-0.404,1.802,1.412
				c0.368-0.165,0.812-0.466,0.664-0.713c0.596-0.056,0.81,0.059,0.294,0.498c2.057-0.711,1.236-0.922,3.175-1.285
				c0.027,0.197-0.351,0.343-0.509,0.608c0.907-0.551,1.838-1.143,3.525-1.162c-0.084,0.131,0.128,0.261-0.365,0.321
				c1.413-0.21,2.592-0.638,3.837-0.91c1.24-0.304,2.536-0.562,4.126-0.387c-0.906,0.886,1.081,0.257,1.254,0.999
				c0,0,0.42-0.064,0.839-0.127c0.421-0.045,0.842-0.09,0.842-0.09l-0.674-0.38c1.476,0.064,2.814-0.489,4.08-0.155
				c0,0-0.279,0.056-0.559,0.112c-0.279,0.07-0.558,0.139-0.558,0.139s0.696-0.023,1.39,0.007c0.696,0.017,1.391,0.035,1.391,0.035
				l-1.553-0.402c1.532-0.269-0.102-0.955,1.878-0.596c-0.414,0.05,1.506,0.102,2.226,0.67l-0.005,0.001
				c0.76-0.143,1.556-0.294,2.631,0.029c0.249,0.272-0.352,0.788-0.19,0.968c0.811-0.495,3.454,0.409,4.488-0.032
				c-0.333,0.083-0.428,0.464-0.346,0.565l0.701-0.359c0.641,0.314,0.72,0.413,0.542,0.693c1.998,0.556-0.428-1.071,1.885-0.118
				c-0.199-0.004-0.128,0.091-0.539,0.075c2.343,0.803,4.714,0.952,6.791,1.95c0.385,0.924-1.939-0.462-1.415,0.385
				c3.129,0.845,6.654,1.545,9.452,3.082l-0.491-0.343c0.861-0.744,1.883,1.533,3.52,1.848c-0.378-0.131-0.731,0.267-0.581,0.211
				c0.899,0.61,1.885,1.106,3.033,1.616c1.117,0.56,2.406,1.126,3.863,1.922l-0.487-0.012c0.895,0.955,2.69,2.032,3.675,3.017
				c0.488,0.038,1.085,0.563,0.952-0.045c0.613,0.952,1.313,1.728,2.066,2.417c0.76,0.678,1.599,1.238,2.383,1.847
				c0.789,0.601,1.609,1.158,2.287,1.846c0.678,0.686,1.272,1.445,1.686,2.347c-0.315-0.325-0.917-0.616-0.67-0.356
				c0,0,0.616,0.523,1.176,1.1c0.574,0.567,1.148,1.133,1.148,1.133c0.184-0.493-0.064-0.501-0.239-1.253
				c0.474,0.129,1.24,0.688,1.77,1.301c-1.203-0.907-0.543,0.476-0.367,1.135c0.045-0.172,0.299-0.102,0.378-0.234
				c0.403,1.844,0.902-0.356,1.905,1.815l-0.269,0.05c0.648,0.595,1.338,1.087,1.838,1.886c-0.211,0.625-0.74-0.61-1.13-0.4
				c0.772,1.045,2.358,1.522,2.537,2.839c-0.425-0.39-0.856-1.067-1.313-1.429c0.235,1.402,0.403,1.461,0.848,2.311l-0.039-0.087
				c0,0,0.237,0.501,0.474,1.003c0.24,0.499,0.463,1.005,0.463,1.005s-0.034-0.143-0.069-0.285c-0.039-0.14-0.079-0.28-0.079-0.28
				c1.028,0.325,1.483,1.036,1.944,1.816c0.227,0.393,0.454,0.807,0.735,1.219c0.265,0.422,0.59,0.839,1.047,1.229
				c-1.748-1.518-0.605-0.084-1.218,0.048c0.107,0.577,0.324,1.416,0.062,1.277c0.923,0.697,0.424,1.696,1.663,2.725
				c-0.151,0.139,0.438,1.015-0.107,0.998c0.692,1.157,0.181-0.422,0.451-0.42c1.473,1.653,1.097,4.784,2.879,7.311
				c0.567,1.171,0.999,1.844,1.454,2.493c0.456,0.649,0.888,1.288,1.306,2.44c-0.12,0.869-0.841-0.486-0.841-0.486
				c0.002,1.35,0.318,2.28,0.754,3.456c-0.211-0.214-0.307,0.069-0.456,0.478c0.223,0.959,0.815,0.524,0.761,1.86
				c-0.254-0.186-0.648-0.411-0.946-0.838c0.19,0.553,0.426,1.097,0.661,1.65c0.207,0.557,0.415,1.123,0.578,1.711
				c-0.297,0.359-0.603-0.655-0.876-1.041c0.318,1.312,0.762,3.419,1.293,3.796l0.124-0.889c0.063,0.493-0.433,0.298-0.572-0.052
				c-0.566-1.102-0.026-1.68,0.16-1.773l0.233,0.841c0.512-0.505,0.356-1.372,0.054-2.316c-0.307-0.945-0.839-1.948-0.949-2.808
				l0.946,0.567l-0.993-1.635c0.136-0.413,0.547-0.77,0.829,0.059c0.158-1.321-0.529-1.026-0.316-2.182
				c0.043-0.133,0.094-0.089,0.151,0.012l-0.518-1.145c0.224,0.194,0.524-0.341,0.579,0.429c0-1.146-0.399-1.975-0.734-2.631
				c-0.33-0.659-0.592-1.151-0.405-1.644l0.1,0.164c-1.178-2.859-0.661-0.117-2.057-2.066l0.926-1.962l-0.671-0.079
				c-0.09-0.304-0.281-0.903-0.009-0.882c-0.824-0.95-0.175,0.281-0.794-0.214c-0.025-0.804-0.453-1.768-0.821-2.59
				c-0.383-0.817-0.658-1.519-0.287-1.879c-0.647-0.305,0.274,1.475-0.689,0.129c0.38-0.429,0.144-0.843-0.202-1.327
				c-0.364-0.477-0.855-1.013-0.957-1.743c0.675,0.134,1.028,1.449,0.817-0.018c-0.6-0.171-0.864-0.797-1.07-1.509
				c-0.21-0.708-0.408-1.482-0.774-1.956c-0.329,0.156-0.715-0.362-1.167-1.118c-0.462-0.75-1.049-1.709-1.679-2.479
				c0.303-0.045-1.748-3.318-2.694-4.934l0.13-0.031c-0.82,0.176-1.836-1.441-2.874-2.378c0.369-0.241,0.673-0.171,1.308,0.286
				c0,0-0.207-0.254-0.425-0.5c-0.216-0.248-0.431-0.495-0.431-0.495c-0.382-0.082-0.743-0.309-1.361-0.893l0.627-0.114
				c-0.574-0.661-1.289-1.202-2.028-1.797c-0.743-0.592-1.436-1.309-2.137-2.197c-0.442,0.287,0.268,2.225-1.653,0.867
				c0.13-0.258,0.394-0.661,0.918-0.318c-0.171-0.113-0.678-0.328-0.889-0.693l1.001,0.311c-0.593-0.848-0.653-0.085-1.207-0.673
				c0.282-0.277-0.242-0.62,0.055-0.769c0.177,0.116,0.402,0.609,0.734,0.711c-0.612-0.687-1.26-1.624-1.353-2.077
				c-0.089,0.22-0.355,0.396-0.896-0.005c-1.333-1.116-0.139-0.749-0.78-1.572c-0.485-0.08-1.185-0.987-1.58-0.544
				c-0.398-0.317-0.301-0.591-0.358-0.838c-0.441-0.172-1.268-0.828-1.967-1.252c-0.703-0.421-1.232-0.662-1.003-0.114l0.163,0.167
				c-0.04-0.019-0.086-0.041-0.135-0.064c0.006,0.004,0,0,0.006,0.004l-0.006-0.004c-0.685-0.307-1.322-0.696-1.937-1.133
				c-0.62-0.427-1.241-0.866-1.845-1.334c-1.196-0.953-2.45-1.833-3.776-2.453l0.1-0.171c-0.802-0.352-1.692-0.742-2.526-1.108
				c-0.836-0.357-1.615-0.686-2.278-0.734c-0.466-0.211-0.954-0.827-0.656-0.951c-1.287-0.401-1.479-0.311-3.155-1.304
				c1.38,0.174-0.317-0.454,1.378,0.273c-1.552-0.791-1.812-1.252-3.747-1.407c0.779-0.27-1.033-1.023-1.871-1.146l1.043,0.735
				c-0.906-0.229-1.661-0.532-2.433-0.837l0.625-0.492c-1.603-0.906-3.272-1.04-4.802-1.126c-1.544-0.056-2.92-0.221-4.145-1.096
				c-1.018,0.291,1.853,0.664,0.911,1.049c-1.583-0.372-3.117-1.623-3.635-1.707c-2.21-0.638-2.221,0.662-4.529,0.185
				c0.281,0.259,0.492,0.91-1.254,1.002c-1.604-0.21-1.938-1.145-0.89-1.257c0.395,0.01,0.579,0.099,0.557,0.178
				c0.535-0.046,1.241-0.094,0.61-0.4l-0.232,0.22c-0.398-0.152-1.165-0.264-1.763-0.382c-0.599-0.108-1.032-0.196-0.755-0.388
				c-1.262,0.194-0.547,0.375,0.368,0.522c-2.104-0.376-3.302-0.153-5.483-0.294c0.35,0.122,0.672,0.393,0.328,0.399
				c-3.194-0.191-1.39,0.436-3.522,0.694c-1.241-0.268,0.379-0.895-1.764-0.428c-1.346-0.143-0.341-0.606,0.177-0.839
				c-0.489,0.153-0.967,0.226-1.427,0.256c-0.459,0.05-0.901,0.051-1.32,0.032c-0.837-0.038-1.584-0.155-2.16-0.124l1.026-0.324
				c-0.614,0.197-1.131,0.247-1.653,0.33l0.669,0.384c-0.628-0.014-1.141,0.106-1.162-0.101c-0.576,0.419,0.602,0.695-0.562,1.334
				c-0.846-0.085-2.396,0.671-2.794,0.143c2.573-0.285-0.412-0.58,1.729-1.076c-0.404,0.15-0.914,0.234-1.542,0.268
				c-0.105-0.048,0.059-0.149,0.22-0.212c-2.555-0.009-0.971,0.949-3.468,1.506c0.231-0.423-0.748-0.518-1.132-0.316
				c1.004-0.277,0.623,0.439-0.212,0.958c-1.652,0.182-1.655,0.684-2.485,0.886l0.976-0.142c-0.218,0.425-1.013,0.6-2.045,1.084
				c-0.179-0.231,0.916-0.51,0.495-0.497c-0.984,1.009-2.928,0.259-4.419,1.337c-0.849,0.076-0.317-0.592-1.05-0.478
				c-1.683,1.14-2.185,0.396-3.956,1.596c0.754,0.182,0.793,0.037-0.343,1.061l2.984-1.717l-1.718,1.538
				c0.94-0.407,1.848-1.188,2.46-1.328c-0.816,0.749-0.749,0.622-0.153,0.777c-1.558-0.065-2.366,1.49-4.01,1.777l-0.478-1.082
				c-1.212,0.334-2.14,0.947-3.088,1.682c-0.935,0.764-1.958,1.532-3.379,2.263c0,0,0.243-0.094,0.485-0.189
				c0.24-0.098,0.49-0.178,0.49-0.178c-0.127,0.611-1.621,1.109-2.388,1.82c-0.136-0.381-0.759-0.155-1.267-0.116
				c0.21,0.21-1.93,1.338-1.701,2.144c0,0-0.366,0.101-0.732,0.202c-0.371,0.096-0.725,0.22-0.725,0.22
				c-2.162,1.436-1.632,2.665-3.548,4.175c0.279-0.809-0.754-0.285,0.301-1.604c-0.628,0.539-1.239,0.973-1.068,1.187
				c-0.262,0.068-0.615,0.535-0.983,1.03c-0.36,0.505-0.753,1.018-1.156,1.144c-0.132,0.366,0.073,0.741-0.614,1.351
				c-0.129,0.012-0.134-0.141-0.134-0.141c0.121,0.13-0.827,1.206,0.041,0.94c-2.653,0.946-4.72,5.176-6.821,6.292
				c-1.037,1.472-2.14,3.337-3.049,4.682c-0.042-0.153-0.161-0.114,0.04-0.35c-1.517,1.696,0.196,1.771-1.494,3.695
				c-1.209,0.789,0.399-1.337-0.221-0.766c-1.298-0.365-1.426,2.739-2.881,3.899l0.124-0.409c-0.988,0.983-1.074,3.079-2.002,5.008
				c0,0-0.062-0.143-0.174-0.092c-0.003,0.807-0.248,1.856-0.495,2.976c-0.256,1.116-0.641,2.255-0.857,3.264
				c-0.275-0.773,0.046-0.975-0.566-0.779c-0.227,0.9,0.866,0.028,0.417,1.806c-0.448,0.474-1.123,1.65-1.678,1.667
				c0,0,0.109-0.423,0.249-0.837c0.133-0.416,0.266-0.833,0.266-0.833c-0.987,0.624-0.675,2.165-1.032,3.015l-0.267-0.199
				c-0.658,2.618,0.155,2.855-0.554,5.626l0.298-0.239c0.429,1.674-0.677,1.201-0.395,2.837l-0.861,0.332
				c-0.009,0.525,0.033,1.451,0.106,2.475c0.069,1.024,0.07,2.134,0.083,3.059c-0.504-1.093-0.499-3.285-0.667-4.681
				c-0.152,1.022-0.391,3.494-0.072,4.062c-0.025-0.418-0.151-0.959,0.021-1.351c0.422,1.324,0.643,2.985,0.467,5.003
				c-1.546-0.436-0.561,5.285-1.625,6.802c0.149,0.91,0.256,1.813,0.343,2.726c0.081,0.913,0.086,1.839,0.127,2.784
				c0.116,1.884,0.161,3.871,0.622,5.961c0.906-1.7,0.252,1.219,1.406,0.726c0.249,0.948,0.347,1.308,0.279,1.412
				c0,0-0.011,0.765-0.022,1.531c-0.005,0.386-0.009,0.771-0.013,1.06c-0.007,0.291,0.001,0.482,0.001,0.482
				c-0.166,0.779-0.496-0.845-0.726-0.695c0.437,2.14-0.271,1.014-0.203,2.504c0.34-0.403,0.81,0.562,0.992,1.81l0.061-1.846
				c0.721,1.372,0.659,2.069,0.639,2.773c-0.034,0.704-0.062,1.427,0.736,2.777l-0.676-0.795c0.692,1.431,2.107,5.483,3.676,6.455
				c-0.014,0.311-0.164,0.791-0.531,0.195c1.465,3.519,4.731,6.95,5.86,9.661l-0.404-0.077c0.46,0.541,1.108,0.728,1.378,1.604
				c-0.128,0.033-0.41-0.062-0.236,0.214c0.302,0.248,1.507,1.216,1.903,2.073l-0.732-0.448c0.903,1.618,1.996,2.57,3.018,3.45
				c1.083,0.834,2.159,1.552,3.249,2.615c-0.647,0.57,1.099,2.905,2.062,3.998l-0.124,0.054c3.003,3.105,5.911,4.352,9.247,6.419
				c0.356,0.547,0.945,1.143,1.674,1.772c0.733,0.622,1.644,1.219,2.582,1.858c1.903,1.238,4.036,2.454,5.693,3.571
				c-0.466-0.419,0.401-0.565,1.061-0.327c0.735,0.609,2.564,0.527,2.088,1.209l-0.294-0.15c0.307,0.996,2.128,1.64,3.522,2.174
				l0.619-0.891c1.503,1.451,3.989,2.155,6.254,2.662c1.142,0.232,2.219,0.477,3.133,0.718c0.917,0.233,1.655,0.534,2.099,0.989
				c0.968-0.026,2.112,0.175,3.072,0.076l-0.15,0.549c1.27,0.304,2.226,0.534,3.274,0.667c1.047,0.129,2.168,0.332,3.785,0.357
				l-0.694,0.353c1.829,0.166,2.417-1.428,4.059-1.387l0.465,0.857c1.577,0.034,3.162,0.278,4.753,0.293
				c0.795,0.02,1.59,0.033,2.377-0.044c0.786-0.098,1.565-0.254,2.327-0.505c-0.041,0.127-0.113,0.378-0.623,0.451
				c1.488-0.018,5.824-0.068,5.119-1.139c0.15,0.785,3.238-0.451,4.821-1.105l-0.145,0.605c1.255-1.02,1.25-1.219,3.138-1.857
				c0.475-0.04,0.513,0.338-0.133,0.342c1.6-0.105,1.044-0.832,2.953-1.055l-0.584,0.536c1.568-0.41,1.401-0.53,2.114-1.215
				c0.886-0.539,2.935-0.837,3.336-0.456c0.099-0.369,0.773-1.076,1.707-1.288c0.19,0.13-0.088,0.367-0.23,0.484
				c1.334-0.309,2.206-0.844,2.96-1.359c0.76-0.504,1.433-0.922,2.389-1.079c0.115,0.148,0.264,0.177,0.426,0.156
				c-1.947,0.924-3.557,1.576-3.42,1.483c0.199,0.474,1.842-0.169,0.85,1.057c0.57-0.47,1.317-1.145,2.12-1.759
				c0.792-0.641,1.627-1.252,2.442-1.529c0.097,0.006,0.191,0.013,0.284,0.054l-0.13,0.132c0.374-0.136,0.668-0.335,0.919-0.568
				c0.513-0.197,0.844-0.315,1.302-0.57c0.379,0.258,1.879-0.782,2.617-1.252c-0.355-0.441,0.649-0.977-0.493-0.796
				c0.136-0.042-0.1,0.15-0.579,0.472c-0.104,0.079-0.233,0.163-0.291,0.234c0.008-0.021,0.016-0.046,0.026-0.072
				c-0.489,0.293-1.127,0.674-1.851,1.108c0.456-0.591,0.948-1.151,1.938-1.361c0.199-0.532,0.403-1.122,0.542-1.412
				c1.405,0.044,3.566-0.857,4.088-0.674c1-0.9,2.254-1.842,3.282-2.87c0.522-0.503,1.006-1.001,1.392-1.494
				c0.371-0.511,0.652-1.007,0.792-1.478c0.475-0.591,0.848-0.334,1.171-0.394c-0.257,0.364-0.659,0.69-0.738,0.959
				c0.992-1.155,3.231-3.083,2.971-3.859c1.589-1.072-0.273,1.238,1.482-0.681l-0.082,0.413c1.093-0.722,1.931-1.546,2.618-2.426
				c0.658-0.908,1.184-1.858,1.721-2.807c1.031-1.945,2.056-3.88,4.285-5.774c-0.304,0.267-0.452,0.402-0.6,0.397
				c1.092-1.2,1.957-2.596,2.848-3.981c0.795-1.444,1.627-2.88,2.299-4.395c1.476-2.968,2.652-6.022,4.298-8.811
				c0.784-1.649,0.403-1.993,0.413-3.142l0.701-0.189c0,0-0.025-0.504-0.066-1.008c-0.039-0.501-0.077-1.003-0.077-1.003
				c0.059-0.675,0.256-1.261,0.519-1.822c0.248-0.565,0.539-1.11,0.835-1.681c0.293-0.572,0.578-1.173,0.779-1.852
				c0.179-0.682,0.249-1.447,0.164-2.323l-0.478,0.358c0.138-0.591,0.268-1.542,0.366-2.318c0.088-0.777,0.202-1.336,0.421-1.206
				c-0.058-0.134-0.37-0.855-0.099-0.855h0.318c0,0-0.044-0.791-0.088-1.546c-0.078-0.753-0.157-1.524-0.157-1.524
				c0.385-2.286,1.262,0.455,1.503-2.946c-0.089-1.283-0.829-3.618-1.052-3.141c-0.028,0.505-0.23,1.285-0.547,1.316l-0.136-1.138
				c-0.926-0.218-1.859-1.04-2.577,1.641l0.522,1.903l-0.497,0.58c0,0,0.033-0.394,0.037-0.789c0.003-0.395,0.005-0.791,0.005-0.791
				c-0.434,0.878-0.108,1.456,0.099,2.111c-0.251,0.135-0.439,0.385-0.556,0.748l0.744,1.92c-0.388,0.183-0.629-0.892-0.971,0.311
				c0.301,0.903,0.917-0.739,1.005,0.719c-0.534,0.85-0.843,0.538-0.617,1.637c-0.256,0.114-0.379-0.13-0.431-0.557
				c0.193,0.973-0.235,2.469,0.157,3.031c-0.34,0.418-0.446,1.204-0.573,1.858c-0.145,0.649-0.332,1.158-0.748,1.018
				c0.141,0.328,0.303,1.763,0.143,2.62c-0.61-1.784-0.924,3.102-1.911,2.379c0.316,0.695,0.08,1.724-0.248,2.84
				c-0.164,0.559-0.336,1.144-0.503,1.714c-0.181,0.565-0.331,1.125-0.398,1.655c-0.027-0.135-0.087-0.402,0.026-0.553
				c-0.5,1.052-0.888,1.258-1.324,1.877c0.663,0.438,0.078,2.163,0.109,3.269c-1.272,0.981-0.475-1.185-1.319-1.079
				c0.301,0.1,0.199,0.731,0.086,1.305c-0.127,0.566-0.245,1.086,0.102,0.988c-0.916,0.762-0.633,0.737-1.464,0.935
				c0.775,0.624-0.294,0.985-0.233,2.051c-1.208,1.132-1-0.104-1.602,1.542C361.682,137.457,362.142,135.958,362.142,135.958z
				 M333.86,165.085c-0.003-0.005-0.005-0.01-0.005-0.01c0.313-0.175,0.579-0.324,0.749-0.419
				C334.449,164.746,334.234,164.869,333.86,165.085z M330.723,166.626c0.396-0.158,0.885-0.364,1.388-0.61
				c0.192,0.114,0.168,0.369-0.161,0.501C332.069,166.321,331.267,166.56,330.723,166.626z M339.25,166.572
				c-0.465,0.359-0.69,0.361-0.816,0.301c0.233-0.145,0.502-0.322,0.847-0.565c0.004-0.026,0.022-0.065,0.024-0.093
				C339.312,166.334,339.308,166.452,339.25,166.572z"/>
			<path style="fill:#FFFFFF;" d="M339.775,165.418c0.066-0.052,0.094-0.095,0.182-0.159c-0.124,0.024-0.242,0.046-0.36,0.069
				c-0.029,0.087-0.06,0.175-0.086,0.253C339.6,165.526,339.692,165.469,339.775,165.418z"/>
			<path style="fill:#FFFFFF;" d="M344.49,38.313l-0.055-0.055c0.038,0.055,0.073,0.106,0.083,0.157
				C344.493,38.364,344.503,38.35,344.49,38.313z"/>
			<polygon style="fill:#FFFFFF;" points="283.806,170.361 283.779,170.501 284.1,170.448 			"/>
			<path style="fill:#FFFFFF;" d="M357.405,53.114c-0.016,0.06-0.01,0.15,0.045,0.29C357.472,53.373,357.444,53.254,357.405,53.114z
				"/>
			<path style="fill:#FFFFFF;" d="M362.198,59.952l0.467,1.099C362.487,60.562,362.332,60.22,362.198,59.952z"/>
			<path style="fill:#FFFFFF;" d="M365.187,65.62c0.124,0.026,0.2,0.012,0.27,0c-0.001-0.005-0.002-0.013-0.002-0.013L365.187,65.62
				z"/>
			<path style="fill:#FFFFFF;" d="M278.88,30.107c-0.081,0.026-0.16,0.056-0.228,0.091C278.136,30.467,278.494,30.309,278.88,30.107
				z"/>
			<path style="fill:#FFFFFF;" d="M308.682,26.148c-0.333,0.06-0.66,0.12-1,0.14C308.215,26.4,308.63,26.464,308.682,26.148z"/>
			<path style="fill:#FFFFFF;" d="M250.659,47.269c0,0-0.003-0.004-0.004-0.01c-0.051,0.049-0.097,0.092-0.148,0.141L250.659,47.269
				z"/>
			<path style="fill:#FFFFFF;" d="M306.273,26.171c0.53,0.153,0.982,0.162,1.409,0.117C307.244,26.216,306.726,26.12,306.273,26.171
				z"/>
			<path style="fill:#FFFFFF;" d="M372.944,91.996l0.016,0.307c0.037-0.009,0.068,0.006,0.093,0.027L372.944,91.996z"/>
			<path style="fill:#FFFFFF;" d="M373.053,92.33l0.092,0.334C373.133,92.507,373.118,92.372,373.053,92.33z"/>
			<path style="fill:#FFFFFF;" d="M373.34,93.368l-0.195-0.705C373.162,92.912,373.168,93.219,373.34,93.368z"/>
			<path style="fill:#FFFFFF;" d="M371.815,83.625l-0.221-0.049C371.647,83.617,371.719,83.636,371.815,83.625z"/>
			<path style="fill:#FFFFFF;" d="M371.165,81.137c0.124,0.603-0.069,1.598,0.253,2.396l0.176,0.042
				C371.203,83.258,371.66,81.616,371.165,81.137z"/>
			<path style="fill:#FFFFFF;" d="M370.015,70.009c0,0,0.181,0.528,0.344,1.062c0.166,0.532,0.332,1.065,0.332,1.065
				c0.06-0.44,0.141-1.029,0.563-0.1C370.816,69.169,371.028,72.751,370.015,70.009z"/>
			<path style="fill:#FFFFFF;" d="M367.296,63.639c0.638,1.023,0.272-0.161,0.408-0.164
				C367.167,62.894,367.03,62.762,367.296,63.639z"/>
			<path style="fill:#FFFFFF;" d="M331.224,30.144l0.32-0.417C330.664,29.41,331.455,29.905,331.224,30.144z"/>
			<path style="fill:#FFFFFF;" d="M321.491,29.316c0,0,0.186,0.135,0.372,0.271c0.185,0.135,0.365,0.286,0.365,0.286l0.534-0.314
				c0,0-0.316-0.067-0.632-0.134C321.81,29.37,321.491,29.316,321.491,29.316z"/>
			<polygon style="fill:#FFFFFF;" points="316.999,24.381 317.415,24.403 315.85,24.232 			"/>
			<path style="fill:#FFFFFF;" d="M240.535,50.857l0.665,0.184C241.526,50.497,241.065,49.933,240.535,50.857z"/>
			<path style="fill:#FFFFFF;" d="M225.352,83.761c-0.414,0.316-0.792,1.296-0.597,1.977
				C224.939,84.935,225.324,84.18,225.352,83.761z"/>
			<path style="fill:#FFFFFF;" d="M273.29,172.507l-0.766-0.075c0,0,0.342,0.087,0.683,0.175c0.339,0.093,0.69,0.153,0.69,0.153
				L273.29,172.507z"/>
		</g>
		<g>
			<path style="fill:#F1C40F;" d="M319.135,133.843c-0.814-3.669-2.966-7.173-6.467-10.506l-4.898-4.59
				c-3.079-2.923-4.917-4.894-5.511-5.915c-0.593-1.02-1.3-3.297-2.114-6.833c-0.783,3.536-1.48,5.813-2.095,6.833
				c-0.614,1.021-2.464,2.992-5.554,5.915l-4.91,4.59c-3.513,3.333-5.673,6.837-6.489,10.506H319.135z"/>
			<path style="fill:#F1C40F;" d="M290.067,83.586l4.633,5.05c2.084,2.259,3.348,3.821,3.794,4.692
				c0.449,0.869,0.822,2.526,1.119,4.969c0.076,0.739,0.242,1.85,0.502,3.33c0.26-1.48,0.426-2.591,0.502-3.33
				c0.296-2.443,0.666-4.099,1.111-4.969c0.446-0.87,1.707-2.433,3.783-4.692l4.62-5.05c3.152-3.405,3.763-5.054,5.082-6.199
				c-7.836,6.801-21.437,7.092-30.309,0.259C286.274,78.702,286.902,80.182,290.067,83.586z"/>
			<path style="fill:#F1C40F;" d="M329.159,139.997c0,2.649-1.453,4.797-3.244,4.797h-51.598c-1.793,0-3.246-2.148-3.246-4.797l0,0
				c0-2.649,1.453-4.797,3.246-4.797h51.598C327.707,135.2,329.159,137.348,329.159,139.997L329.159,139.997z"/>
			<path style="fill:#F1C40F;" d="M279.821,133.843c-0.071-0.285-0.071-0.525-0.071-0.7v-4.221c0-3.695,0.544-5.722,1.001-6.771
				c0.484-1.112,1.714-3.131,4.828-6.434l7.341-7.696c3.533-3.741,4.721-5.719,4.721-7.853c0-2.289-1.352-4.387-5.56-8.634
				l-7.332-7.523l-0.012-0.013l-0.011-0.011c-2.561-2.587-3.599-4.42-4.021-5.503c-0.435-1.119-0.955-3.293-0.955-7.292V66.64
				c0-0.205,0-0.559,0.287-1h-4.589c-0.049,0.325-0.077,0.657-0.077,1v4.552c0,3.775,0.417,6.737,1.254,8.882
				c0.836,2.147,2.499,4.477,4.987,6.994l7.358,7.551c2.861,2.886,4.292,4.737,4.292,5.55c0,0.741-1.169,2.351-3.512,4.83
				l-7.356,7.716c-2.861,3.036-4.748,5.6-5.658,7.69c-0.911,2.091-1.364,4.932-1.364,8.519v4.22c0,0.239,0.01,0.472,0.033,0.702
				H279.821z"/>
			<path style="fill:#F1C40F;" d="M307.275,107.979c-3.46-3.721-4.626-5.692-4.626-7.812c0-2.249,1.383-4.422,5.478-8.607
				l7.356-7.55l0.01-0.011l0.012-0.01c2.561-2.592,3.601-4.425,4.023-5.505c0.434-1.118,0.954-3.29,0.954-7.293V66.64
				c0-0.205,0-0.559-0.288-1h4.59c0.049,0.325,0.077,0.657,0.077,1v4.552c0,3.775-0.417,6.737-1.254,8.882
				c-0.835,2.147-2.5,4.477-4.989,6.994l-7.356,7.551c-2.824,2.886-4.237,4.737-4.237,5.55c0,0.741,1.151,2.351,3.457,4.83
				l7.356,7.716c2.861,3.036,4.746,5.6,5.657,7.69c0.911,2.091,1.365,4.932,1.365,8.519v4.22c0,0.239-0.011,0.472-0.033,0.702
				h-4.418c0.071-0.285,0.071-0.525,0.071-0.7v-4.221c0-3.695-0.545-5.722-1.001-6.77c-0.485-1.113-1.717-3.132-4.81-6.417
				l-7.358-7.714l-0.02-0.021L307.275,107.979z"/>
			<path style="fill:#F1C40F;" d="M329.159,59.592c0-2.65-1.453-4.798-3.244-4.798h-51.598c-1.793,0-3.246,2.148-3.246,4.798l0,0
				c0,2.649,1.453,4.797,3.246,4.797h51.598C327.707,64.389,329.159,62.241,329.159,59.592L329.159,59.592z"/>
		</g>
	</g>
	<g>
		<g>
			<path style="fill:#FFFFFF;" d="M173.784,99.794c0.171,0.248,0.568,0.105,0.471-0.569l-0.674-0.471L173.784,99.794z"/>
			<path style="fill:#FFFFFF;" d="M174.857,95.205c-0.381-0.784-1.013-1.649-1.58-1.091c0.693,0.733,0.443,0.938,1.264,1.743
				c0.105,0.677-0.18,1.194-0.424,1.089c0.176,0.234-0.119,1.052,0.306,1.408c0.473-0.89,0.522-2.032-0.01-3.171
				C174.54,94.922,174.731,95.154,174.857,95.205z"/>
			<path style="fill:#FFFFFF;" d="M144.126,37.942l0.309,0.316C144.364,38.155,144.256,38.048,144.126,37.942z"/>
			<path style="fill:#FFFFFF;" d="M105.173,23.689c0.321,0.009,0.459-0.047,0.48-0.106
				C105.352,23.604,105.105,23.626,105.173,23.689z"/>
			<path style="fill:#FFFFFF;" d="M97.968,22.828c0.156,0.012,0.287,0.023,0.429,0.034C98.233,22.805,98.068,22.775,97.968,22.828z"
				/>
			<path style="fill:#FFFFFF;" d="M144.126,37.942l-0.794-0.82C143.145,37.254,143.708,37.587,144.126,37.942z"/>
			<path style="fill:#FFFFFF;" d="M172.165,86.368c0.071,0.217,0.165,0.392,0.275,0.548c-0.061-0.178-0.116-0.352-0.166-0.531
				C172.236,86.381,172.204,86.378,172.165,86.368z"/>
			<path style="fill:#FFFFFF;" d="M158.139,50.024l0.225,0.258c0.123,0.027,0.255,0.04,0.392,0.042L158.139,50.024z"/>
			<path style="fill:#FFFFFF;" d="M166.468,61.608c-0.14-0.293-0.682-0.107-0.955-0.089c0.29,0.04,0.504,0.19,0.682,0.413
				C166.291,61.884,166.381,61.784,166.468,61.608z"/>
			<path style="fill:#FFFFFF;" d="M173.762,82.856l0.165,0.37C173.885,83.13,173.813,82.969,173.762,82.856z"/>
			<path style="fill:#FFFFFF;" d="M151.073,42.639c0.037-0.078,0.047-0.166,0.035-0.235
				C151.061,42.456,151.055,42.54,151.073,42.639z"/>
			<path style="fill:#FFFFFF;" d="M170.784,115.341c0.037,0.019,0.065,0.01,0.098,0.02
				C170.844,115.273,170.81,115.24,170.784,115.341z"/>
			<path style="fill:#FFFFFF;" d="M175.26,99.794l0.025,0.225c0.106,0.024,0.21,0.05,0.314,0.05L175.26,99.794z"/>
			<path style="fill:#FFFFFF;" d="M84.64,23c0.027,0,0.036,0,0.061,0C85.036,23,84.841,23,84.64,23z"/>
			<path style="fill:#FFFFFF;" d="M24.54,116.156c0.182-1.446,1.134,2.044,1.214-0.091C25.584,116.305,24.473,114.408,24.54,116.156
				z"/>
			<path style="fill:#FFFFFF;" d="M172.175,86.005c-0.039-0.181-0.076-0.365-0.104-0.552
				C172.098,85.709,172.13,85.878,172.175,86.005z"/>
			<path style="fill:#FFFFFF;" d="M25.754,116.064l0.004-0.001l0.004-0.218C25.759,115.936,25.757,115.987,25.754,116.064z"/>
			<path style="fill:#FFFFFF;" d="M56.547,35.819c0.107,0.045,0.249,0.037,0.394,0.022C56.899,35.799,56.802,35.782,56.547,35.819z"
				/>
			<path style="fill:#FFFFFF;" d="M77.343,26.634l-0.555,0.108C77.015,26.719,77.191,26.678,77.343,26.634z"/>
			<path style="fill:#FFFFFF;" d="M47.818,43.837c-0.25,0.179-0.379,0.195-0.629,0.537c0.048-0.006,0.089-0.018,0.139-0.038
				C47.384,44.177,47.505,44.012,47.818,43.837z"/>
			<path style="fill:#FFFFFF;" d="M39.571,52.887c0.074-0.025,0.152-0.072,0.229-0.108c0.068-0.101,0.147-0.219,0.216-0.323
				L39.571,52.887z"/>
			<path style="fill:#FFFFFF;" d="M155.524,146.73c0.287-0.09,0.525-0.098,0.739-0.082
				C155.84,146.526,156.848,145.146,155.524,146.73z"/>
			<path style="fill:#FFFFFF;" d="M172.474,86.305c-0.152-0.042-0.238-0.128-0.299-0.299c0.034,0.131,0.066,0.256,0.098,0.379
				C172.361,86.403,172.44,86.396,172.474,86.305z"/>
			<path style="fill:#FFFFFF;" d="M50.507,47.401l-1.387,1.207C49.53,48.293,50.033,47.853,50.507,47.401z"/>
			<path style="fill:#FFFFFF;" d="M80.017,169.669l0.426,0.051C80.29,169.663,80.141,169.638,80.017,169.669z"/>
			<path style="fill:#FFFFFF;" d="M45.48,52.665c-0.365,0.118-0.681,0.307-0.975,0.531c-0.016,0.086-0.046,0.175-0.029,0.255
				L45.48,52.665z"/>
			<path style="fill:#FFFFFF;" d="M156.27,146h-0.007H156.27z"/>
			<path style="fill:#FFFFFF;" d="M162.142,135.958c-0.88,1.5,0.213,1.082,0.39,1.624c-0.957,1.889-0.987,0.534-1.69,0.931
				c-0.268,0.6-0.396,1.205-0.528,1.764c-0.146,0.548-0.307,1.043-0.602,1.436c-0.142-0.01-0.288,0.119-0.284-0.151
				c-0.296,1.502-2.425,3.316-2.879,5.043c-0.13,0.05-0.217,0.056-0.28,0.043c0.457,0.038,0.774,0.246,0.944,0.459
				c-0.516,0.615-0.626,1.435-1.189,1.348c0.334-0.364,0.213-0.522,0.249-0.794l-0.392,0.773c-1.017,0.115,0.57-1.024,0.177-1.356
				c-0.446,0.687-0.873,1.486-1.312,2.219c-0.463,0.711-0.947,1.347-1.45,1.735c-0.669-0.284,1.851-2.272,0.261-1.48
				c0,0,0.379-0.305,0.757-0.61c0.364-0.321,0.727-0.642,0.727-0.642c-1.761,0.397,0.816-0.83-0.921-0.574
				c-0.876,0.894-1.338,1.417-1.745,1.995c-0.428,0.557-0.82,1.157-1.809,1.935c-0.146,0.661,0.525,0.271,0.376,0.934
				c-1.064,1.498-1.882,1.666-2.595,1.739c-0.708,0.086-1.294,0.103-1.991,1.306c-0.231,0.777,0.085,1.607-1.678,2.419l0.033-1.003
				c-1.953,1.445-0.445,1.735-2.831,2.821c0.2-0.513,1.42-1.322,1.065-1.182c-1.701,0.465-0.701,1.033-1.748,1.778l-0.599-0.415
				c-2.104,1.5-4.287,3.444-6.824,4.864c0.051-0.253,0.39-0.666-0.305-0.544c-1.518,1.012-3.31,1.773-5.103,2.454
				c-1.829,0.601-3.661,1.122-5.381,1.451l-1.08,0.986c-0.297,0.093-0.631-0.092-0.341-0.289c-1.37,0.157,0.041,0.375-0.522,0.775
				c-0.739,0.252-1.081-0.044-0.658-0.347c-2.125,1.229-6.441,2.686-9.055,2.478l0.46-0.26c-1.975,0.072-2.053,1.49-3.954,1.194
				l0.34-0.148c-4.295,0.232-9.1,0.782-12.333-0.288c-0.334,0.398-1.393,0.223-2.405,0.094c-1.015-0.106-1.974-0.29-2.185,0.293
				c-2.371-0.891-1.65-0.973-4.956-1.971c-0.89-0.198-1.483,0.446-2.63,0.315l0.111-0.607l-1.659,0.281c0,0-0.155-0.227-0.309-0.455
				c-0.151-0.234-0.301-0.469-0.301-0.469l-1.065-0.138c0.398,0.151,0.796,0.514,0.688,0.667c-0.842-0.094-1.798-0.477-2.528-0.873
				c-0.724-0.417-1.215-0.868-1.186-1.021c0,0-0.973-0.191-1.945-0.383c-0.971-0.206-1.931-0.464-1.931-0.464
				c0.172-0.199,0.816-0.036,1.354,0.006c-2.176-0.182-0.118-0.745-2.111-0.911c0.187,0.224-0.268,0.289-0.357,0.388
				c-0.382-0.335-1.06-0.746-1.837-1.131c-0.773-0.393-1.669-0.713-2.417-1.023l0.462-0.241c-2.535-1.399-5.529-2.641-8.241-4.476
				c0.877,0.797,0.259,1.276-0.6,0.809l0.035-0.751c-0.75-0.002,0.716,0.75-0.64,0.467c-0.976-0.768-0.258-1.085,0.431-0.856
				l-1.342-0.675c0.041-0.209,0.384-0.091,0.599-0.242c-0.73-0.033-1.706-1.982-2.794-1.988l0.053-0.205
				c-0.638-0.503-1.197-0.926-1.711-1.303c-0.502-0.393-0.952-0.746-1.388-1.087c-0.88-0.675-1.706-1.302-2.664-2.223
				c-0.425,0.372-1.093-0.437-1.994-0.667c-0.618-0.779-1.224-1.64-1.881-2.512c-0.647-0.883-1.293-1.823-2.092-2.694
				c-1.278-1.1-0.677-0.07-1.408-0.444c0.32-0.421-1.178-2.25-0.129-1.512c-0.926-1.076-1.457-1.809-2.091-2.586
				c-0.317-0.388-0.657-0.79-1.07-1.264c-0.394-0.489-0.851-1.056-1.42-1.762c0.034,0.442,0.197,0.865-0.074,0.766
				c-0.427-0.511-0.627-1.376-0.366-1.425l0.139,0.117c-1.387-1.527-2.24-3.762-2.92-5.902c-0.379-1.054-0.654-2.119-1.026-3.051
				c-0.184-0.467-0.385-0.905-0.612-1.305c-0.206-0.409-0.439-0.779-0.71-1.102l0.115,0.147c0,0-0.435-0.723-0.869-1.446
				c-0.453-0.72-0.832-1.474-0.832-1.474c-0.408-1.484,0.658,0.744,0.594-0.436c-0.488-0.777-0.841-1.508-1.116-2.204
				c-0.241-0.707-0.405-1.379-0.556-2.032c-0.329-1.301-0.492-2.55-1.103-3.931c0.228-0.637,0.244-1.445,0.172-2.358
				c-0.071-0.913-0.329-1.915-0.498-2.96c-0.176-1.043-0.388-2.111-0.494-3.117c-0.068-1.01-0.06-1.955,0.122-2.733l-0.342,0.199
				c-0.408-0.772,0.121-0.971,0.195-1.557c-0.274,0.094-0.298,0.877-0.504,0.392c-0.336-3.367-0.184-6.885,0.376-10.348
				c0.59-3.459,1.395-6.881,2.405-10.155c0.674-2.4-1.415-1.856,0.254-4.707l0.385,1.062c0.131-1.284,0.515-2.516,0.867-3.763
				c0.377-1.239,0.902-2.432,1.374-3.639c0.531-1.183,1.061-2.362,1.585-3.531c0.566-1.149,1.051-2.326,1.51-3.503
				c-0.014,0.333,0.147,0.43-0.074,0.864c0.913-0.699,1.947-3.362,1.62-3.592c0.459-0.633,0.4,0.032,0.828-0.265
				c0.813-0.725,0.9-2.578,1.635-2.764c0.121-0.033-0.046,0.327-0.121,0.509c0.201-0.695,1.901-2.574,1.07-2.363
				c0.636-0.699,1.153-1.43,1.636-2.133c0.492-0.694,0.925-1.382,1.556-1.83c0.179-1.138,2.309-2.245,1.904-3.035
				c0.583,0.714,2.769-1.899,3.379-2.991c-0.098,0.471,0.943-0.507,0.865,0.09c0.948-0.957,1.795-1.865,1.305-2.066
				c1.305-0.408,2.084-1.407,2.871-2.221c0.773-0.822,1.449-1.579,2.441-1.414c2.924-2.794,5.997-4.994,9.132-6.88
				c0.155,0.444-0.75,0.879-1.567,1.401c-0.825,0.507-1.616,1.001-1.308,1.369c0.694-0.506,1.3-0.991,1.867-1.458
				c0.586-0.44,1.135-0.853,1.683-1.264c1.098-0.834,2.29-1.507,3.899-2.114c0.858-0.253-0.304,0.567-0.511,0.83
				c1.474-0.914,3.061-1.442,4.557-2.048c1.54-0.493,2.995-1.077,4.412-1.701c0.015,0.083-0.277,0.261-0.557,0.412
				c0.573-0.193,1.386-0.256,1.209-0.631l-0.537,0.268c-1.11-0.301,1.987-1.862,2.03-2.19c-0.72,1.372,3.064-0.404,1.802,1.412
				c0.368-0.165,0.812-0.466,0.664-0.713c0.596-0.056,0.81,0.059,0.294,0.498c2.057-0.711,1.236-0.922,3.175-1.285
				c0.027,0.197-0.351,0.343-0.509,0.608c0.907-0.551,1.838-1.143,3.525-1.162c-0.084,0.131,0.128,0.261-0.365,0.321
				c1.413-0.21,2.592-0.638,3.837-0.91c1.24-0.304,2.536-0.562,4.126-0.387c-0.906,0.886,1.081,0.257,1.254,0.999
				c0,0,0.42-0.064,0.839-0.127c0.421-0.045,0.842-0.09,0.842-0.09l-0.674-0.38c1.476,0.064,2.814-0.489,4.08-0.155
				c0,0-0.279,0.056-0.559,0.112c-0.279,0.07-0.558,0.139-0.558,0.139s0.696-0.023,1.39,0.007c0.696,0.017,1.391,0.035,1.391,0.035
				l-1.553-0.402c1.532-0.269-0.102-0.955,1.878-0.596c-0.414,0.05,1.506,0.102,2.226,0.67l-0.005,0.001
				c0.76-0.143,1.556-0.294,2.631,0.029c0.249,0.272-0.352,0.788-0.19,0.968c0.811-0.495,3.454,0.409,4.488-0.032
				c-0.333,0.083-0.428,0.464-0.346,0.565l0.701-0.359c0.641,0.314,0.72,0.413,0.542,0.693c1.998,0.556-0.428-1.071,1.885-0.118
				c-0.199-0.004-0.128,0.091-0.539,0.075c2.343,0.803,4.714,0.952,6.791,1.95c0.385,0.924-1.939-0.462-1.415,0.385
				c3.129,0.845,6.654,1.545,9.452,3.082l-0.491-0.343c0.861-0.744,1.883,1.533,3.52,1.848c-0.378-0.131-0.731,0.267-0.581,0.211
				c0.899,0.61,1.885,1.106,3.033,1.616c1.117,0.56,2.406,1.126,3.863,1.922l-0.487-0.012c0.895,0.955,2.69,2.032,3.675,3.017
				c0.488,0.038,1.085,0.563,0.952-0.045c0.613,0.952,1.313,1.728,2.066,2.417c0.76,0.678,1.599,1.238,2.383,1.847
				c0.789,0.601,1.609,1.158,2.287,1.846c0.678,0.686,1.272,1.445,1.686,2.347c-0.315-0.325-0.917-0.616-0.67-0.356
				c0,0,0.616,0.523,1.176,1.1c0.574,0.567,1.148,1.133,1.148,1.133c0.184-0.493-0.064-0.501-0.239-1.253
				c0.474,0.129,1.24,0.688,1.77,1.301c-1.203-0.907-0.543,0.476-0.367,1.135c0.045-0.172,0.299-0.102,0.377-0.234
				c0.403,1.844,0.902-0.356,1.905,1.815l-0.269,0.05c0.648,0.595,1.338,1.087,1.838,1.886c-0.211,0.625-0.74-0.61-1.13-0.4
				c0.772,1.045,2.358,1.522,2.537,2.839c-0.425-0.39-0.856-1.067-1.313-1.429c0.236,1.402,0.403,1.461,0.848,2.311l-0.039-0.087
				c0,0,0.237,0.501,0.474,1.003c0.24,0.499,0.463,1.005,0.463,1.005s-0.034-0.143-0.069-0.285c-0.039-0.14-0.079-0.28-0.079-0.28
				c1.028,0.325,1.483,1.036,1.944,1.816c0.227,0.393,0.454,0.807,0.735,1.219c0.265,0.422,0.59,0.839,1.047,1.229
				c-1.748-1.518-0.605-0.084-1.218,0.048c0.107,0.577,0.324,1.416,0.062,1.277c0.923,0.697,0.424,1.696,1.663,2.725
				c-0.151,0.139,0.438,1.015-0.107,0.998c0.692,1.157,0.181-0.422,0.451-0.42c1.473,1.653,1.097,4.784,2.88,7.311
				c0.567,1.171,0.999,1.844,1.454,2.493c0.457,0.649,0.888,1.288,1.306,2.44c-0.12,0.869-0.841-0.486-0.841-0.486
				c0.002,1.35,0.318,2.28,0.754,3.456c-0.211-0.214-0.307,0.069-0.456,0.478c0.223,0.959,0.815,0.524,0.761,1.86
				c-0.254-0.186-0.648-0.411-0.946-0.838c0.19,0.553,0.426,1.097,0.661,1.65c0.207,0.557,0.415,1.123,0.578,1.711
				c-0.297,0.359-0.603-0.655-0.876-1.041c0.318,1.312,0.762,3.419,1.293,3.796l0.124-0.889c0.063,0.493-0.433,0.298-0.572-0.052
				c-0.566-1.102-0.026-1.68,0.16-1.773l0.233,0.841c0.512-0.505,0.356-1.372,0.054-2.316c-0.307-0.945-0.839-1.948-0.949-2.808
				l0.946,0.567l-0.993-1.635c0.136-0.413,0.547-0.77,0.829,0.059c0.158-1.321-0.529-1.026-0.316-2.182
				c0.043-0.133,0.094-0.089,0.151,0.012l-0.518-1.145c0.224,0.194,0.524-0.341,0.579,0.429c0-1.146-0.399-1.975-0.734-2.631
				c-0.33-0.659-0.592-1.151-0.405-1.644l0.1,0.164c-1.178-2.859-0.661-0.117-2.057-2.066l0.926-1.962l-0.671-0.079
				c-0.09-0.304-0.281-0.903-0.009-0.882c-0.824-0.95-0.175,0.281-0.794-0.214c-0.025-0.804-0.453-1.768-0.821-2.59
				c-0.383-0.817-0.658-1.519-0.287-1.879c-0.647-0.305,0.274,1.475-0.689,0.129c0.38-0.429,0.144-0.843-0.202-1.327
				c-0.364-0.477-0.855-1.013-0.957-1.743c0.675,0.134,1.028,1.449,0.817-0.018c-0.6-0.171-0.864-0.797-1.07-1.509
				c-0.21-0.708-0.408-1.482-0.774-1.956c-0.329,0.156-0.715-0.362-1.167-1.118c-0.462-0.75-1.049-1.709-1.679-2.479
				c0.303-0.045-1.748-3.318-2.694-4.934l0.13-0.031c-0.82,0.176-1.836-1.441-2.874-2.378c0.369-0.241,0.673-0.171,1.309,0.286
				c0,0-0.207-0.254-0.425-0.5c-0.216-0.248-0.431-0.495-0.431-0.495c-0.382-0.082-0.743-0.309-1.361-0.893l0.627-0.114
				c-0.574-0.661-1.289-1.202-2.028-1.797c-0.743-0.592-1.436-1.309-2.137-2.197c-0.442,0.287,0.268,2.225-1.653,0.867
				c0.13-0.258,0.394-0.661,0.918-0.318c-0.171-0.113-0.678-0.328-0.889-0.693l1.001,0.311c-0.593-0.848-0.653-0.085-1.207-0.673
				c0.282-0.277-0.242-0.62,0.055-0.769c0.177,0.116,0.402,0.609,0.734,0.711c-0.612-0.687-1.26-1.624-1.353-2.077
				c-0.089,0.22-0.355,0.396-0.896-0.005c-1.333-1.116-0.139-0.749-0.78-1.572c-0.485-0.08-1.185-0.987-1.58-0.544
				c-0.398-0.317-0.301-0.591-0.358-0.838c-0.441-0.172-1.268-0.828-1.967-1.252c-0.702-0.421-1.232-0.662-1.003-0.114l0.163,0.167
				c-0.04-0.019-0.086-0.041-0.135-0.064c0.006,0.004,0,0,0.006,0.004l-0.006-0.004c-0.685-0.307-1.322-0.696-1.937-1.133
				c-0.62-0.427-1.241-0.866-1.845-1.334c-1.196-0.953-2.45-1.833-3.776-2.453l0.1-0.171c-0.802-0.352-1.692-0.742-2.526-1.108
				c-0.836-0.357-1.615-0.686-2.278-0.734c-0.466-0.211-0.954-0.827-0.656-0.951c-1.287-0.401-1.479-0.311-3.155-1.304
				c1.38,0.174-0.317-0.454,1.378,0.273c-1.552-0.791-1.812-1.252-3.747-1.407c0.779-0.27-1.033-1.023-1.871-1.146l1.043,0.735
				c-0.906-0.229-1.661-0.532-2.433-0.837l0.625-0.492c-1.603-0.906-3.272-1.04-4.802-1.126c-1.544-0.056-2.92-0.221-4.145-1.096
				c-1.018,0.291,1.853,0.664,0.911,1.049c-1.583-0.372-3.117-1.623-3.636-1.707c-2.21-0.638-2.221,0.662-4.529,0.185
				c0.28,0.259,0.492,0.91-1.254,1.002c-1.604-0.21-1.938-1.145-0.89-1.257c0.395,0.01,0.579,0.099,0.557,0.178
				c0.535-0.046,1.241-0.094,0.61-0.4l-0.232,0.22c-0.398-0.152-1.165-0.264-1.763-0.382c-0.599-0.108-1.032-0.196-0.755-0.388
				c-1.262,0.194-0.548,0.375,0.368,0.522c-2.104-0.376-3.302-0.153-5.483-0.294c0.35,0.122,0.672,0.393,0.328,0.399
				c-3.194-0.191-1.39,0.436-3.522,0.694c-1.241-0.268,0.379-0.895-1.764-0.428c-1.346-0.143-0.341-0.606,0.177-0.839
				c-0.489,0.153-0.967,0.226-1.427,0.256c-0.459,0.05-0.901,0.051-1.32,0.032c-0.837-0.038-1.584-0.155-2.16-0.124l1.026-0.324
				c-0.614,0.197-1.131,0.247-1.653,0.33l0.669,0.384c-0.628-0.014-1.141,0.106-1.162-0.101c-0.576,0.419,0.602,0.695-0.562,1.334
				c-0.847-0.085-2.396,0.671-2.794,0.143c2.573-0.285-0.412-0.58,1.729-1.076c-0.404,0.15-0.914,0.234-1.542,0.268
				c-0.105-0.048,0.059-0.149,0.22-0.212c-2.555-0.009-0.971,0.949-3.468,1.506c0.231-0.423-0.748-0.518-1.132-0.316
				c1.004-0.277,0.623,0.439-0.212,0.958c-1.652,0.182-1.655,0.684-2.485,0.886l0.976-0.142c-0.218,0.425-1.013,0.6-2.045,1.084
				c-0.179-0.231,0.916-0.51,0.495-0.497c-0.984,1.009-2.928,0.259-4.419,1.337c-0.849,0.076-0.317-0.592-1.05-0.478
				c-1.683,1.14-2.185,0.396-3.956,1.596c0.754,0.182,0.793,0.037-0.343,1.061l2.984-1.717l-1.718,1.538
				c0.94-0.407,1.848-1.188,2.46-1.328c-0.816,0.749-0.749,0.622-0.153,0.777c-1.558-0.065-2.366,1.49-4.01,1.777l-0.478-1.082
				c-1.212,0.334-2.14,0.947-3.088,1.682c-0.935,0.764-1.958,1.532-3.379,2.263c0,0,0.243-0.094,0.485-0.189
				c0.24-0.098,0.49-0.178,0.49-0.178c-0.127,0.611-1.621,1.109-2.388,1.82c-0.136-0.381-0.759-0.155-1.267-0.116
				c0.21,0.21-1.93,1.338-1.701,2.144c0,0-0.366,0.101-0.732,0.202c-0.371,0.096-0.725,0.22-0.725,0.22
				c-2.162,1.436-1.632,2.665-3.548,4.175c0.279-0.809-0.754-0.285,0.301-1.604c-0.628,0.539-1.239,0.973-1.068,1.187
				c-0.262,0.068-0.615,0.535-0.984,1.03c-0.36,0.505-0.753,1.018-1.156,1.144c-0.132,0.366,0.073,0.741-0.614,1.351
				c-0.129,0.012-0.134-0.141-0.134-0.141c0.121,0.13-0.827,1.206,0.041,0.94c-2.653,0.946-4.72,5.176-6.821,6.292
				c-1.036,1.472-2.14,3.337-3.049,4.682c-0.042-0.153-0.161-0.114,0.04-0.35c-1.517,1.696,0.196,1.771-1.494,3.695
				c-1.209,0.789,0.399-1.337-0.221-0.766c-1.298-0.365-1.426,2.739-2.881,3.899l0.124-0.409c-0.988,0.983-1.074,3.079-2.002,5.008
				c0,0-0.062-0.143-0.174-0.092c-0.003,0.807-0.248,1.856-0.495,2.976c-0.256,1.116-0.641,2.255-0.857,3.264
				c-0.275-0.773,0.046-0.975-0.566-0.779c-0.227,0.9,0.866,0.028,0.417,1.806c-0.448,0.474-1.123,1.65-1.678,1.667
				c0,0,0.109-0.423,0.249-0.837c0.133-0.416,0.266-0.833,0.266-0.833c-0.987,0.624-0.675,2.165-1.032,3.015l-0.267-0.199
				c-0.658,2.618,0.155,2.855-0.554,5.626l0.298-0.239c0.429,1.674-0.677,1.201-0.395,2.837l-0.861,0.332
				c-0.009,0.525,0.033,1.451,0.106,2.475c0.069,1.024,0.07,2.134,0.083,3.059c-0.504-1.093-0.499-3.285-0.667-4.681
				c-0.152,1.022-0.391,3.494-0.072,4.062c-0.025-0.418-0.151-0.959,0.022-1.351c0.422,1.324,0.642,2.985,0.467,5.003
				c-1.546-0.436-0.561,5.285-1.625,6.802c0.149,0.91,0.256,1.813,0.343,2.726c0.081,0.913,0.086,1.839,0.127,2.784
				c0.116,1.884,0.162,3.871,0.622,5.961c0.906-1.7,0.252,1.219,1.406,0.726c0.249,0.948,0.347,1.308,0.279,1.412
				c0,0-0.011,0.765-0.022,1.531c-0.005,0.386-0.009,0.771-0.013,1.06c-0.007,0.291,0.001,0.482,0.001,0.482
				c-0.166,0.779-0.496-0.845-0.726-0.695c0.437,2.14-0.271,1.014-0.203,2.504c0.34-0.403,0.81,0.562,0.992,1.81l0.061-1.846
				c0.721,1.372,0.659,2.069,0.639,2.773c-0.034,0.704-0.062,1.427,0.736,2.777l-0.676-0.795c0.692,1.431,2.107,5.483,3.676,6.455
				c-0.014,0.311-0.164,0.791-0.531,0.195c1.465,3.519,4.731,6.95,5.86,9.661l-0.404-0.077c0.46,0.541,1.108,0.728,1.378,1.604
				c-0.128,0.033-0.41-0.062-0.236,0.214c0.302,0.248,1.507,1.216,1.903,2.073l-0.732-0.448c0.903,1.618,1.996,2.57,3.018,3.45
				c1.083,0.834,2.159,1.552,3.248,2.615c-0.647,0.57,1.099,2.905,2.062,3.998l-0.124,0.054c3.003,3.105,5.911,4.352,9.247,6.419
				c0.356,0.547,0.945,1.143,1.674,1.772c0.733,0.622,1.644,1.219,2.582,1.858c1.903,1.238,4.036,2.454,5.693,3.571
				c-0.466-0.419,0.401-0.565,1.061-0.327c0.735,0.609,2.564,0.527,2.088,1.209l-0.294-0.15c0.307,0.996,2.128,1.64,3.522,2.174
				l0.619-0.891c1.503,1.451,3.989,2.155,6.254,2.662c1.142,0.232,2.219,0.477,3.133,0.718c0.917,0.233,1.655,0.534,2.099,0.989
				c0.968-0.026,2.112,0.175,3.072,0.076l-0.15,0.549c1.27,0.304,2.226,0.534,3.274,0.667c1.047,0.129,2.168,0.332,3.785,0.357
				l-0.694,0.353c1.829,0.166,2.417-1.428,4.059-1.387l0.465,0.857c1.577,0.034,3.162,0.278,4.753,0.293
				c0.795,0.02,1.59,0.033,2.377-0.044c0.786-0.098,1.566-0.254,2.327-0.505c-0.041,0.127-0.113,0.378-0.623,0.451
				c1.488-0.018,5.824-0.068,5.119-1.139c0.15,0.785,3.238-0.451,4.821-1.105l-0.145,0.605c1.255-1.02,1.25-1.219,3.138-1.857
				c0.475-0.04,0.513,0.338-0.133,0.342c1.6-0.105,1.044-0.832,2.953-1.055l-0.584,0.536c1.568-0.41,1.401-0.53,2.114-1.215
				c0.886-0.539,2.935-0.837,3.336-0.456c0.099-0.369,0.773-1.076,1.707-1.288c0.19,0.13-0.088,0.367-0.23,0.484
				c1.334-0.309,2.206-0.844,2.96-1.359c0.76-0.504,1.433-0.922,2.389-1.079c0.115,0.148,0.264,0.177,0.426,0.156
				c-1.947,0.924-3.557,1.576-3.42,1.483c0.199,0.474,1.842-0.169,0.85,1.057c0.57-0.47,1.317-1.145,2.12-1.759
				c0.792-0.641,1.627-1.252,2.442-1.529c0.097,0.006,0.191,0.013,0.284,0.054l-0.13,0.132c0.374-0.136,0.668-0.335,0.919-0.568
				c0.512-0.197,0.844-0.315,1.301-0.57c0.379,0.258,1.879-0.782,2.617-1.252c-0.355-0.441,0.649-0.977-0.493-0.796
				c0.136-0.042-0.1,0.15-0.579,0.472c-0.104,0.079-0.233,0.163-0.291,0.234c0.007-0.021,0.016-0.046,0.026-0.072
				c-0.489,0.293-1.127,0.674-1.851,1.108c0.456-0.591,0.948-1.151,1.938-1.361c0.199-0.532,0.403-1.122,0.542-1.412
				c1.405,0.044,3.566-0.857,4.088-0.674c1-0.9,2.254-1.842,3.282-2.87c0.522-0.503,1.006-1.001,1.392-1.494
				c0.371-0.511,0.652-1.007,0.792-1.478c0.475-0.591,0.848-0.334,1.171-0.394c-0.257,0.364-0.659,0.69-0.738,0.959
				c0.991-1.155,3.231-3.083,2.971-3.859c1.589-1.072-0.273,1.238,1.483-0.681l-0.082,0.413c1.093-0.722,1.931-1.546,2.618-2.426
				c0.658-0.908,1.184-1.858,1.721-2.807c1.031-1.945,2.056-3.88,4.285-5.774c-0.304,0.267-0.452,0.402-0.6,0.397
				c1.092-1.2,1.957-2.596,2.848-3.981c0.795-1.444,1.627-2.88,2.299-4.395c1.476-2.968,2.652-6.022,4.298-8.811
				c0.784-1.649,0.403-1.993,0.413-3.142l0.701-0.189c0,0-0.025-0.504-0.066-1.008c-0.039-0.501-0.077-1.003-0.077-1.003
				c0.059-0.675,0.256-1.261,0.519-1.822c0.248-0.565,0.539-1.11,0.835-1.681c0.293-0.572,0.578-1.173,0.779-1.852
				c0.179-0.682,0.249-1.447,0.164-2.323l-0.478,0.358c0.138-0.591,0.268-1.542,0.366-2.318c0.088-0.777,0.202-1.336,0.421-1.206
				c-0.058-0.134-0.37-0.855-0.099-0.855h0.318c0,0-0.044-0.791-0.088-1.546c-0.078-0.753-0.157-1.524-0.157-1.524
				c0.385-2.286,1.262,0.455,1.503-2.946c-0.089-1.283-0.829-3.618-1.052-3.141c-0.028,0.505-0.23,1.285-0.547,1.316l-0.136-1.138
				c-0.926-0.218-1.859-1.04-2.577,1.641l0.522,1.903l-0.497,0.58c0,0,0.033-0.394,0.037-0.789c0.003-0.395,0.005-0.791,0.005-0.791
				c-0.434,0.878-0.108,1.456,0.098,2.111c-0.251,0.135-0.439,0.385-0.556,0.748l0.744,1.92c-0.388,0.183-0.629-0.892-0.971,0.311
				c0.301,0.903,0.917-0.739,1.005,0.719c-0.534,0.85-0.843,0.538-0.617,1.637c-0.256,0.114-0.379-0.13-0.431-0.557
				c0.193,0.973-0.235,2.469,0.157,3.031c-0.34,0.418-0.446,1.204-0.573,1.858c-0.145,0.649-0.332,1.158-0.748,1.018
				c0.141,0.328,0.303,1.763,0.143,2.62c-0.61-1.784-0.924,3.102-1.911,2.379c0.316,0.695,0.08,1.724-0.248,2.84
				c-0.164,0.559-0.336,1.144-0.503,1.714c-0.181,0.565-0.331,1.125-0.399,1.655c-0.027-0.135-0.087-0.402,0.026-0.553
				c-0.5,1.052-0.888,1.258-1.324,1.877c0.663,0.438,0.078,2.163,0.109,3.269c-1.272,0.981-0.475-1.185-1.319-1.079
				c0.301,0.1,0.199,0.731,0.086,1.305c-0.127,0.566-0.245,1.086,0.102,0.988c-0.916,0.762-0.633,0.737-1.464,0.935
				c0.775,0.624-0.294,0.985-0.233,2.051c-1.208,1.132-1-0.104-1.602,1.542C161.682,137.457,162.142,135.958,162.142,135.958z
				 M133.86,165.085c-0.002-0.005-0.005-0.01-0.005-0.01c0.313-0.175,0.579-0.324,0.749-0.419
				C134.449,164.746,134.234,164.869,133.86,165.085z M130.723,166.626c0.396-0.158,0.885-0.364,1.388-0.61
				c0.192,0.114,0.168,0.369-0.161,0.501C132.069,166.321,131.267,166.56,130.723,166.626z M139.249,166.572
				c-0.465,0.359-0.69,0.361-0.816,0.301c0.233-0.145,0.502-0.322,0.847-0.565c0.004-0.026,0.022-0.065,0.024-0.093
				C139.312,166.334,139.308,166.452,139.249,166.572z"/>
			<path style="fill:#FFFFFF;" d="M139.775,165.418c0.066-0.052,0.094-0.095,0.182-0.159c-0.124,0.024-0.241,0.046-0.36,0.069
				c-0.029,0.087-0.059,0.175-0.086,0.253C139.6,165.526,139.692,165.469,139.775,165.418z"/>
			<path style="fill:#FFFFFF;" d="M144.49,38.313l-0.055-0.055c0.038,0.055,0.073,0.106,0.083,0.157
				C144.493,38.364,144.503,38.35,144.49,38.313z"/>
			<polygon style="fill:#FFFFFF;" points="83.806,170.361 83.779,170.501 84.1,170.448 			"/>
			<path style="fill:#FFFFFF;" d="M157.405,53.114c-0.016,0.06-0.01,0.15,0.045,0.29C157.472,53.373,157.444,53.254,157.405,53.114z
				"/>
			<path style="fill:#FFFFFF;" d="M162.198,59.952l0.467,1.099C162.487,60.562,162.332,60.22,162.198,59.952z"/>
			<path style="fill:#FFFFFF;" d="M165.187,65.62c0.124,0.026,0.2,0.012,0.27,0c-0.001-0.005-0.002-0.013-0.002-0.013L165.187,65.62
				z"/>
			<path style="fill:#FFFFFF;" d="M78.88,30.107c-0.081,0.026-0.16,0.056-0.228,0.091C78.136,30.467,78.494,30.309,78.88,30.107z"/>
			<path style="fill:#FFFFFF;" d="M108.682,26.148c-0.333,0.06-0.66,0.12-1,0.14C108.215,26.4,108.63,26.464,108.682,26.148z"/>
			<path style="fill:#FFFFFF;" d="M50.659,47.269c0,0-0.003-0.004-0.004-0.01c-0.051,0.049-0.097,0.092-0.148,0.141L50.659,47.269z"
				/>
			<path style="fill:#FFFFFF;" d="M106.273,26.171c0.53,0.153,0.982,0.162,1.409,0.117C107.244,26.216,106.726,26.12,106.273,26.171
				z"/>
			<path style="fill:#FFFFFF;" d="M172.944,91.996l0.016,0.307c0.037-0.009,0.068,0.006,0.093,0.027L172.944,91.996z"/>
			<path style="fill:#FFFFFF;" d="M173.053,92.33l0.092,0.334C173.133,92.507,173.118,92.372,173.053,92.33z"/>
			<path style="fill:#FFFFFF;" d="M173.34,93.368l-0.195-0.705C173.162,92.912,173.168,93.219,173.34,93.368z"/>
			<path style="fill:#FFFFFF;" d="M171.815,83.625l-0.221-0.049C171.647,83.617,171.719,83.636,171.815,83.625z"/>
			<path style="fill:#FFFFFF;" d="M171.165,81.137c0.124,0.603-0.069,1.598,0.253,2.396l0.176,0.042
				C171.203,83.258,171.66,81.616,171.165,81.137z"/>
			<path style="fill:#FFFFFF;" d="M170.015,70.009c0,0,0.181,0.528,0.344,1.062c0.166,0.532,0.332,1.065,0.332,1.065
				c0.06-0.44,0.141-1.029,0.563-0.1C170.816,69.169,171.028,72.751,170.015,70.009z"/>
			<path style="fill:#FFFFFF;" d="M167.296,63.639c0.638,1.023,0.272-0.161,0.408-0.164
				C167.167,62.894,167.03,62.762,167.296,63.639z"/>
			<path style="fill:#FFFFFF;" d="M131.224,30.144l0.32-0.417C130.664,29.41,131.455,29.905,131.224,30.144z"/>
			<path style="fill:#FFFFFF;" d="M121.491,29.316c0,0,0.186,0.135,0.372,0.271c0.185,0.135,0.365,0.286,0.365,0.286l0.534-0.314
				c0,0-0.316-0.067-0.632-0.134C121.81,29.37,121.491,29.316,121.491,29.316z"/>
			<polygon style="fill:#FFFFFF;" points="116.999,24.381 117.415,24.403 115.85,24.232 			"/>
			<path style="fill:#FFFFFF;" d="M40.535,50.857l0.665,0.184C41.526,50.497,41.065,49.933,40.535,50.857z"/>
			<path style="fill:#FFFFFF;" d="M25.352,83.761c-0.414,0.316-0.792,1.296-0.597,1.977C24.939,84.935,25.324,84.18,25.352,83.761z"
				/>
			<path style="fill:#FFFFFF;" d="M73.29,172.507l-0.766-0.075c0,0,0.342,0.087,0.683,0.175c0.339,0.093,0.69,0.153,0.69,0.153
				L73.29,172.507z"/>
		</g>
		<path style="fill-rule:evenodd;clip-rule:evenodd;fill:#F1C40F;" d="M103.219,131.413V59.794l20.83,7.756v14.105l16.811,3.263
			v46.496h5.118v8.381H54.252v-8.381h8.586V85.545l16.811-3.77V67.55l20.83-7.756v71.619H103.219L103.219,131.413z M95.984,111.842
			c-0.843,0.074-1.686,0.146-2.527,0.215c-0.841,0.067-1.679,0.133-2.52,0.2c0,1.138,0,2.279,0,3.417
			c0.841-0.051,1.679-0.108,2.52-0.159c0.841-0.051,1.684-0.11,2.527-0.166C95.984,114.182,95.984,113.018,95.984,111.842
			L95.984,111.842z M107.827,69.406c0,1.018,0,2.025,0,3.032l12.385,2.843v-2.878L107.827,69.406L107.827,69.406z M107.827,125.636
			c0,1.007,0,2.015,0,3.014c5.367,0,10.511,0,15.435,0c4.721,0,9.263,0,13.617,0c0-0.882,0-1.771,0-2.658
			c-4.357-0.054-8.896-0.108-13.617-0.167C118.338,125.764,113.195,125.7,107.827,125.636L107.827,125.636z M107.827,76.444
			c0,1.007,0,2.015,0,3.022l12.385,2.486v-2.868L107.827,76.444L107.827,76.444z M107.827,83.469c0,1.007,0,2.014,0,3.022
			c5.37,0.925,10.511,1.81,15.435,2.658c4.721,0.813,9.26,1.594,13.617,2.343c0-0.887,0-1.776,0-2.663
			c-4.357-0.802-8.896-1.64-13.617-2.512C118.338,85.409,113.197,84.461,107.827,83.469L107.827,83.469z M107.827,90.497
			c0,1.007,0,2.015,0,3.027c5.37,0.769,10.514,1.507,15.435,2.215c4.721,0.677,9.26,1.327,13.617,1.953c0-0.894,0-1.781,0-2.671
			c-4.357-0.677-8.896-1.384-13.617-2.12C118.338,92.134,113.197,91.332,107.827,90.497L107.827,90.497z M107.827,97.524
			c0,1.005,0,2.02,0,3.027c5.37,0.615,10.514,1.204,15.435,1.771c4.721,0.541,9.26,1.061,13.617,1.561c0-0.887,0-1.781,0-2.668
			c-4.357-0.554-8.896-1.13-13.617-1.73C118.338,98.86,113.197,98.206,107.827,97.524L107.827,97.524z M107.827,104.55
			c0,1.012,0,2.02,0,3.027c5.37,0.461,10.511,0.905,15.435,1.328c4.721,0.407,9.26,0.797,13.617,1.171c0-0.887,0-1.774,0-2.668
			c-4.357-0.428-8.896-0.874-13.617-1.338C118.338,105.585,113.197,105.078,107.827,104.55L107.827,104.55z M107.827,111.583
			c0,1.007,0,2.015,0,3.022c5.37,0.308,10.514,0.602,15.435,0.884c4.721,0.272,9.26,0.53,13.617,0.782c0-0.889,0-1.776,0-2.663
			c-4.357-0.305-8.896-0.62-13.617-0.951C118.338,112.316,113.197,111.957,107.827,111.583L107.827,111.583z M107.827,118.608
			c0,1.007,0,2.015,0,3.022c5.367,0.154,10.511,0.302,15.435,0.444c4.721,0.136,9.26,0.264,13.617,0.389c0-0.887,0-1.776,0-2.663
			c-4.357-0.179-8.896-0.364-13.617-0.559C118.338,119.041,113.197,118.828,107.827,118.608L107.827,118.608z M78.763,113.297
			c-0.843,0.067-1.684,0.133-2.527,0.195c-0.841,0.062-1.681,0.123-2.519,0.185c0,1.043,0,2.087,0,3.13
			c0.838-0.046,1.679-0.097,2.519-0.146c0.841-0.046,1.684-0.098,2.527-0.151C78.763,115.443,78.763,114.374,78.763,113.297
			L78.763,113.297z M71.256,113.864c-0.879,0.067-1.761,0.133-2.637,0.195c-0.877,0.064-1.753,0.136-2.627,0.195
			c0,1.007,0,2.012,0,3.006c0.874-0.046,1.751-0.095,2.627-0.146c0.877-0.049,1.758-0.103,2.637-0.161
			C71.256,115.922,71.256,114.894,71.256,113.864L71.256,113.864z M78.763,88.016c-0.843,0.174-1.687,0.338-2.527,0.502
			c-0.843,0.161-1.681,0.325-2.519,0.492c0,1.043,0,2.086,0,3.124c0.838-0.151,1.679-0.3,2.519-0.449
			c0.841-0.149,1.684-0.305,2.527-0.456C78.763,90.161,78.763,89.09,78.763,88.016L78.763,88.016z M71.256,89.487
			c-0.879,0.177-1.761,0.349-2.637,0.518c-0.874,0.172-1.753,0.344-2.627,0.513c0,1.002,0,2.007,0,3.012
			c0.874-0.161,1.753-0.318,2.627-0.474c0.877-0.156,1.758-0.313,2.637-0.477C71.256,91.548,71.256,90.52,71.256,89.487
			L71.256,89.487z M78.763,94.262c-0.843,0.138-1.689,0.282-2.527,0.42c-0.841,0.139-1.681,0.28-2.519,0.418
			c0,1.041,0,2.086,0,3.124c0.838-0.123,1.679-0.251,2.519-0.374c0.841-0.123,1.684-0.256,2.527-0.387
			C78.763,96.397,78.763,95.331,78.763,94.262L78.763,94.262z M71.256,95.5c-0.879,0.154-1.761,0.302-2.637,0.446
			c-0.874,0.141-1.753,0.289-2.627,0.43c0,1,0,2.007,0,3.012c0.874-0.133,1.751-0.264,2.627-0.395
			c0.879-0.128,1.758-0.261,2.637-0.4C71.256,97.563,71.256,96.535,71.256,95.5L71.256,95.5z M78.763,106.954
			c-0.843,0.09-1.687,0.18-2.527,0.267c-0.843,0.087-1.681,0.174-2.519,0.266c0,1.043,0,2.087,0,3.125
			c0.838-0.077,1.679-0.146,2.519-0.223c0.838-0.074,1.684-0.151,2.527-0.228C78.763,109.094,78.763,108.028,78.763,106.954
			L78.763,106.954z M71.256,107.743c-0.879,0.09-1.761,0.185-2.637,0.277c-0.874,0.09-1.753,0.185-2.627,0.274
			c0,1.007,0,2.007,0,3.006c0.874-0.075,1.751-0.151,2.627-0.226c0.877-0.077,1.758-0.164,2.637-0.244
			C71.256,109.802,71.256,108.771,71.256,107.743L71.256,107.743z M78.763,100.713c-0.843,0.12-1.687,0.241-2.527,0.349
			c-0.841,0.108-1.681,0.228-2.519,0.336c0,1.043,0,2.086,0,3.125c0.838-0.092,1.679-0.195,2.519-0.292
			c0.838-0.095,1.684-0.205,2.527-0.305C78.763,102.853,78.763,101.787,78.763,100.713L78.763,100.713z M71.256,101.723
			c-0.879,0.126-1.761,0.246-2.637,0.364c-0.877,0.115-1.753,0.231-2.627,0.349c0,1.007,0,2.007,0,3.012
			c0.874-0.103,1.753-0.205,2.627-0.305c0.877-0.103,1.758-0.215,2.637-0.325C71.256,103.786,71.256,102.758,71.256,101.723
			L71.256,101.723z M78.763,125.995c-0.843,0.013-1.687,0.031-2.527,0.036c-0.841,0.008-1.681,0.031-2.519,0.033
			c0,1.043,0,2.086,0,3.127c0.838,0,1.679,0,2.519,0c0.843,0,1.684,0,2.527,0C78.763,128.137,78.763,127.066,78.763,125.995
			L78.763,125.995z M71.256,126.102c-0.879,0.013-1.761,0.028-2.637,0.039c-0.877,0.008-1.753,0.023-2.627,0.033
			c0,0.999,0,2.004,0,2.999c0.874,0.005,1.751,0.005,2.627,0.01c0.877,0.008,1.758,0.008,2.637,0.008
			C71.256,128.161,71.256,127.13,71.256,126.102L71.256,126.102z M78.763,119.754c-0.843,0.038-1.687,0.079-2.527,0.113
			s-1.681,0.075-2.519,0.108c0,1.043,0,2.087,0,3.132c0.838-0.018,1.679-0.046,2.519-0.067s1.684-0.051,2.527-0.08
			C78.763,121.899,78.763,120.83,78.763,119.754L78.763,119.754z M71.256,120.087c-0.879,0.039-1.761,0.085-2.637,0.12
			c-0.877,0.033-1.753,0.074-2.627,0.113c0,0.999,0,2.004,0,3.006c0.874-0.02,1.751-0.049,2.627-0.072
			c0.877-0.023,1.758-0.051,2.637-0.079C71.256,122.145,71.256,121.117,71.256,120.087L71.256,120.087z M88.477,112.462
			c-0.879,0.075-1.761,0.144-2.637,0.213c-0.877,0.069-1.753,0.146-2.627,0.213c0,1.097,0,2.196,0,3.281
			c0.874-0.051,1.751-0.105,2.627-0.159c0.877-0.054,1.758-0.115,2.637-0.177C88.477,114.707,88.477,113.585,88.477,112.462
			L88.477,112.462z M95.984,70.367c-0.843,0.251-1.686,0.497-2.527,0.728c-0.841,0.233-1.682,0.467-2.52,0.697
			c0,1.146,0,2.291,0,3.43c0.838-0.215,1.679-0.438,2.52-0.654c0.838-0.218,1.684-0.449,2.527-0.672
			C95.984,72.73,95.984,71.558,95.984,70.367L95.984,70.367z M88.477,72.481c-0.879,0.246-1.758,0.487-2.637,0.736
			c-0.874,0.246-1.753,0.492-2.627,0.736c0,1.102,0,2.207,0,3.296c0.874-0.226,1.753-0.459,2.627-0.687
			c0.879-0.228,1.758-0.464,2.637-0.692C88.477,74.744,88.477,73.609,88.477,72.481L88.477,72.481z M95.984,84.248
			c-0.843,0.187-1.686,0.367-2.527,0.546c-0.841,0.179-1.682,0.356-2.52,0.538c0,1.138,0,2.276,0,3.411
			c0.838-0.166,1.679-0.328,2.52-0.492c0.838-0.161,1.684-0.33,2.527-0.497C95.984,86.588,95.984,85.419,95.984,84.248
			L95.984,84.248z M88.477,85.853c-0.879,0.192-1.761,0.379-2.637,0.566c-0.874,0.187-1.753,0.372-2.627,0.559
			c0,1.092,0,2.191,0,3.286c0.874-0.174,1.753-0.346,2.627-0.515c0.877-0.172,1.758-0.343,2.637-0.523
			C88.477,88.103,88.477,86.98,88.477,85.853L88.477,85.853z M95.984,77.43c-0.843,0.213-1.689,0.428-2.527,0.628
			c-0.841,0.203-1.682,0.415-2.52,0.615c0,1.138,0,2.284,0,3.422c0.838-0.189,1.679-0.382,2.52-0.571
			c0.841-0.187,1.684-0.39,2.527-0.582C95.984,79.778,95.984,78.607,95.984,77.43L95.984,77.43z M88.477,79.281
			c-0.879,0.218-1.758,0.433-2.637,0.648c-0.874,0.215-1.753,0.431-2.627,0.644c0,1.102,0,2.199,0,3.291
			c0.874-0.195,1.753-0.397,2.627-0.6c0.879-0.202,1.758-0.4,2.637-0.602C88.477,81.539,88.477,80.409,88.477,79.281L88.477,79.281z
			 M95.984,91.066c-0.843,0.151-1.689,0.308-2.527,0.459c-0.841,0.149-1.682,0.305-2.52,0.454c0,1.138,0,2.278,0,3.411
			c0.838-0.133,1.679-0.274,2.52-0.408c0.841-0.136,1.684-0.282,2.527-0.423C95.984,93.396,95.984,92.229,95.984,91.066
			L95.984,91.066z M88.477,92.416c-0.879,0.167-1.761,0.331-2.637,0.484c-0.874,0.156-1.753,0.318-2.627,0.472
			c0,1.092,0,2.189,0,3.288c0.874-0.146,1.753-0.287,2.627-0.43c0.879-0.141,1.758-0.285,2.637-0.438
			C88.477,94.669,88.477,93.544,88.477,92.416L88.477,92.416z M95.984,104.919c-0.843,0.097-1.686,0.195-2.527,0.292
			c-0.841,0.095-1.679,0.19-2.52,0.29c0,1.138,0,2.276,0,3.409c0.841-0.082,1.679-0.159,2.52-0.241
			c0.838-0.082,1.684-0.166,2.527-0.249C95.984,107.254,95.984,106.09,95.984,104.919L95.984,104.919z M88.477,105.78
			c-0.879,0.1-1.761,0.203-2.637,0.303c-0.874,0.097-1.753,0.202-2.627,0.3c0,1.097,0,2.189,0,3.281
			c0.874-0.082,1.751-0.164,2.627-0.246c0.877-0.082,1.758-0.18,2.637-0.267C88.477,108.028,88.477,106.903,88.477,105.78
			L88.477,105.78z M95.984,98.106c-0.843,0.131-1.686,0.261-2.527,0.379c-0.841,0.12-1.682,0.249-2.52,0.367
			c0,1.138,0,2.279,0,3.411c0.838-0.103,1.679-0.213,2.52-0.318c0.838-0.108,1.684-0.223,2.527-0.333
			C95.984,100.441,95.984,99.278,95.984,98.106L95.984,98.106z M88.477,99.208c-0.879,0.136-1.761,0.269-2.637,0.397
			c-0.874,0.126-1.753,0.251-2.627,0.382c0,1.097,0,2.189,0,3.286c0.874-0.113,1.753-0.223,2.627-0.333
			c0.877-0.113,1.758-0.236,2.637-0.356C88.477,101.461,88.477,100.339,88.477,99.208L88.477,99.208z M95.984,125.7
			c-0.843,0.018-1.686,0.036-2.527,0.044c-0.841,0.005-1.679,0.031-2.52,0.036c0,1.138,0,2.276,0,3.411c0.841,0,1.679,0,2.52,0
			c0.841,0,1.684,0,2.527,0C95.984,128.043,95.984,126.871,95.984,125.7L95.984,125.7z M88.477,125.821
			c-0.879,0.015-1.761,0.031-2.637,0.041c-0.877,0.01-1.753,0.026-2.627,0.036c0,1.092,0,2.189,0,3.275
			c0.874,0.005,1.751,0.005,2.627,0.01c0.877,0.008,1.758,0.008,2.637,0.008C88.477,128.066,88.477,126.943,88.477,125.821
			L88.477,125.821z M95.984,118.89c-0.843,0.041-1.686,0.09-2.527,0.123c-0.841,0.036-1.679,0.082-2.52,0.118
			c0,1.14,0,2.278,0,3.419c0.841-0.02,1.679-0.051,2.52-0.072c0.841-0.023,1.684-0.056,2.527-0.089
			C95.984,121.23,95.984,120.066,95.984,118.89L95.984,118.89z M88.477,119.254c-0.879,0.041-1.761,0.092-2.637,0.131
			c-0.877,0.039-1.753,0.082-2.627,0.123c0,1.092,0,2.189,0,3.281c0.874-0.02,1.751-0.051,2.627-0.077
			c0.877-0.023,1.758-0.056,2.637-0.087C88.477,121.502,88.477,120.377,88.477,119.254z"/>
	</g>
</g>
</svg>
